SplineFontDB: 3.0
FontName: vt-icons
FullName: vt-icons
FamilyName: vt-icons
Weight: Book
Version: 1.0
ItalicAngle: 0
UnderlinePosition: 0
UnderlineWidth: 0
Ascent: 960
Descent: 64
InvalidEm: 0
sfntRevision: 0x00000000
woffMajor: 0
woffMinor: 0
LayerCount: 2
Layer: 0 1 "Back" 1
Layer: 1 1 "Fore" 0
XUID: [1021 1020 -584626834 23911]
FSType: 0
OS2Version: 3
OS2_WeightWidthSlopeOnly: 0
OS2_UseTypoMetrics: 1
CreationTime: 1412024274
ModificationTime: 1414955788
PfmFamily: 81
TTFWeight: 400
TTFWidth: 5
LineGap: 0
VLineGap: 0
Panose: 0 0 0 0 0 0 0 0 0 0
OS2TypoAscent: 960
OS2TypoAOffset: 0
OS2TypoDescent: -64
OS2TypoDOffset: 0
OS2TypoLinegap: -64
OS2WinAscent: 960
OS2WinAOffset: 0
OS2WinDescent: 64
OS2WinDOffset: 0
HheadAscent: 960
HheadAOffset: 0
HheadDescent: -64
HheadDOffset: 0
OS2SubXSize: 665
OS2SubYSize: 716
OS2SubXOff: 0
OS2SubYOff: 143
OS2SupXSize: 665
OS2SupYSize: 716
OS2SupXOff: 0
OS2SupYOff: 491
OS2StrikeYSize: 51
OS2StrikeYPos: 265
OS2CapHeight: 0
OS2XHeight: 0
OS2CodePages: 00000001.00000000
OS2UnicodeRanges: 00000001.10000000.00000000.00000000
DEI: 91125
ShortTable: maxp 16
  1
  0
  43
  309
  17
  0
  0
  2
  0
  0
  0
  0
  0
  0
  0
  0
EndShort
LangName: 1033 "" "" "Regular" "vt-icons" "" "Version 1.0" "" "" "" "" "Font generated by IcoMoon."
GaspTable: 1 65535 15 1
Encoding: UnicodeBmp
UnicodeInterp: none
NameList: AGL For New Fonts
DisplaySize: -48
AntiAlias: 1
FitToEm: 1
WinInfo: 58839 11 6
BeginChars: 65536 43

StartChar: glyph1
Encoding: 0 -1 1
AltUni2: 000000.ffffffff.0
Width: 0
Flags: W
LayerCount: 2
Back
Fore
SplineSet
0 0 m 1,0,-1
 0 0 l 1,1,-1
 0 0 l 1,2,-1
 0 0 l 1,0,-1
EndSplineSet
EndChar

StartChar: uni0001
Encoding: 1 1 2
Width: 0
Flags: W
LayerCount: 2
Back
Fore
SplineSet
0 0 m 1,0,-1
 0 0 l 1,1,-1
 0 0 l 1,2,-1
 0 0 l 1,0,-1
EndSplineSet
EndChar

StartChar: space
Encoding: 32 32 3
Width: 512
Flags: W
LayerCount: 2
Back
Fore
SplineSet
0 0 m 1,0,-1
 0 0 l 1,1,-1
 0 0 l 1,2,-1
 0 0 l 1,0,-1
EndSplineSet
EndChar

StartChar: uniE600
Encoding: 58880 58880 4
Width: 1024
Flags: WO
LayerCount: 2
Back
Fore
SplineSet
512 960 m 5,0,1
 406 960 406 960 312.5 920 c 132,-1,2
 219 880 219 880 150 810 c 4,3,4
 80 741 80 741 40 647.5 c 132,-1,5
 0 554 0 554 0 448 c 260,6,7
 0 342 0 342 40 248.5 c 132,-1,8
 80 155 80 155 150 86 c 4,9,10
 219 16 219 16 312.5 -24 c 132,-1,11
 406 -64 406 -64 512 -64 c 260,12,13
 618 -64 618 -64 711.5 -24 c 132,-1,14
 805 16 805 16 874 86 c 4,15,16
 944 155 944 155 984 248.5 c 132,-1,17
 1024 342 1024 342 1024 448 c 260,18,19
 1024 554 1024 554 984 647.5 c 132,-1,20
 944 741 944 741 874 810 c 4,21,22
 805 880 805 880 711.5 920 c 132,-1,23
 618 960 618 960 512 960 c 5,24,-1
 512 960 l 5,0,1
520 503 m 1,25,-1
 377 158 l 1,26,-1
 352 158 l 1,27,-1
 197 503 l 2,28,29
 188 524 188 524 179 538 c 128,-1,30
 170 552 170 552 160 561 c 256,31,32
 150 570 150 570 137.5 574 c 128,-1,33
 125 578 125 578 109 578 c 1,34,-1
 109 604 l 1,35,-1
 335 604 l 1,36,-1
 335 578 l 1,37,38
 313 578 313 578 300.5 575 c 128,-1,39
 288 572 288 572 283 564 c 0,40,41
 279 555 279 555 282 540.5 c 128,-1,42
 285 526 285 526 294 503 c 2,43,-1
 385 300 l 1,44,-1
 470 503 l 2,45,46
 478 524 478 524 481.5 538 c 128,-1,47
 485 552 485 552 481 561 c 256,48,49
 477 570 477 570 465.5 574 c 128,-1,50
 454 578 454 578 433 578 c 1,51,-1
 433 604 l 1,52,-1
 611 604 l 1,53,-1
 611 578 l 1,54,55
 594 578 594 578 581 574.5 c 128,-1,56
 568 571 568 571 557 562 c 0,57,58
 547 553 547 553 538 538.5 c 128,-1,59
 529 524 529 524 520 503 c 1,60,-1
 520 503 l 1,25,-1
  Spiro
    520 503 v
    377 158 v
    352 158 v
    197 503 ]
    188 522.25 o
    179 538 o
    169.75 550.75 o
    160 561 o
    149.375 568.75 o
    137.5 574 o
    124.125 577 o
    109 578 v
    109 604 v
    335 604 v
    335 578 v
    315.375 577.25 o
    300.5 575 o
    289.875 570.75 o
    283 564 o
    280.75 553.625 o
    282 540.5 o
    286.5 523.875 o
    294 503 [
    385 300 v
    470 503 ]
    476.875 522.25 o
    481.5 538 o
    483.125 550.75 o
    481 561 o
    475.125 568.75 o
    465.5 574 o
    451.625 577 o
    433 578 v
    433 604 v
    611 604 v
    611 578 v
    595 577.125 o
    581 574.5 o
    568.5 569.625 o
    557 562 o
    547.25 551.625 o
    538 538.5 o
    529 522.375 o
    520 503 v
    0 0 z
  EndSpiro
546 559 m 1,61,-1
 546 590 l 1,62,63
 575 596 575 596 595 609 c 128,-1,64
 615 622 615 622 628 642 c 0,65,66
 641 661 641 661 648.5 686.5 c 128,-1,67
 656 712 656 712 659 743 c 1,68,-1
 702 743 l 1,69,-1
 702 604 l 1,70,-1
 813 604 l 1,71,-1
 813 559 l 1,72,-1
 702 559 l 1,73,-1
 702 303 l 2,74,75
 702 280 702 280 705.5 262.5 c 128,-1,76
 709 245 709 245 716 234 c 0,77,78
 723 222 723 222 733.5 216 c 128,-1,79
 744 210 744 210 759 210 c 0,80,81
 768 210 768 210 778 213 c 128,-1,82
 788 216 788 216 798 222 c 0,83,84
 809 228 809 228 820 236 c 128,-1,85
 831 244 831 244 842 255 c 1,86,-1
 864 233 l 1,87,88
 850 217 850 217 833.5 203.5 c 128,-1,89
 817 190 817 190 799 180 c 0,90,91
 782 170 782 170 764 164.5 c 128,-1,92
 746 159 746 159 730 159 c 0,93,94
 704 159 704 159 682.5 167.5 c 128,-1,95
 661 176 661 176 645 194 c 256,96,97
 629 212 629 212 620.5 239 c 128,-1,98
 612 266 612 266 612 303 c 2,99,-1
 612 559 l 1,100,-1
 546 559 l 1,101,-1
 546 559 l 1,61,-1
  Spiro
    546 559 v
    546 590 v
    572.75 597.75 o
    595 609 o
    613.25 623.75 o
    628 642 o
    639.625 662.625 o
    648.5 686.5 o
    654.875 713.375 o
    659 743 v
    702 743 v
    702 604 v
    813 604 v
    813 559 v
    702 559 v
    702 303 ]
    702.875 281.375 o
    705.5 262.5 o
    709.875 246.625 o
    716 234 o
    723.875 223.5 o
    733.5 216 o
    745.125 211.5 o
    759 210 o
    768.25 210.75 o
    778 213 o
    788 216.75 o
    798 222 o
    809 228.5 o
    820 236 o
    831 244.75 o
    842 255 v
    864 233 v
    849.375 217.625 o
    833.5 203.5 o
    816.625 190.875 o
    799 180 o
    781.75 171.125 o
    764 164.5 o
    746.5 160.375 o
    730 159 o
    705.125 161.125 o
    682.5 167.5 o
    662.375 178.375 o
    645 194 o
    630.875 214.25 o
    620.5 239 o
    614.125 268.5 o
    612 303 [
    612 559 v
    546 559 v
    0 0 z
  EndSpiro
EndSplineSet
EndChar

StartChar: uniE601
Encoding: 58881 58881 5
Width: 1024
Flags: W
LayerCount: 2
Back
Fore
SplineSet
1024 704 m 1,0,1
 1024 721 1024 721 1018.5 736 c 128,-1,2
 1013 751 1013 751 1003 764 c 0,3,4
 993 776 993 776 979.5 785 c 128,-1,5
 966 794 966 794 950 798 c 2,6,-1
 533 894 l 2,7,8
 528 895 528 895 522.5 895.5 c 128,-1,9
 517 896 517 896 512 896 c 256,10,11
 507 896 507 896 501.5 895.5 c 128,-1,12
 496 895 496 895 490 894 c 2,13,-1
 74 798 l 2,14,15
 58 794 58 794 44.5 785 c 128,-1,16
 31 776 31 776 21 764 c 0,17,18
 11 751 11 751 5.5 736 c 128,-1,19
 0 721 0 721 0 704 c 256,20,21
 0 687 0 687 5.5 672 c 128,-1,22
 11 657 11 657 21 644 c 0,23,24
 31 632 31 632 44.5 623 c 128,-1,25
 58 614 58 614 74 610 c 2,26,-1
 160 591 l 1,27,-1
 160 320 l 2,28,29
 160 288 160 288 179 259 c 128,-1,30
 198 230 198 230 240 208 c 0,31,32
 283 186 283 186 349.5 173 c 128,-1,33
 416 160 416 160 512 160 c 256,34,35
 608 160 608 160 674.5 173 c 128,-1,36
 741 186 741 186 784 208 c 0,37,38
 826 230 826 230 845 259 c 128,-1,39
 864 288 864 288 864 320 c 2,40,-1
 864 591 l 1,41,-1
 950 610 l 2,42,43
 966 614 966 614 979.5 623 c 128,-1,44
 993 632 993 632 1003 644 c 0,45,46
 1013 657 1013 657 1018.5 672 c 128,-1,47
 1024 687 1024 687 1024 704 c 1,48,-1
 1024 704 l 1,0,1
800 320 m 1,49,50
 800 307 800 307 782 290 c 128,-1,51
 764 273 764 273 728 259 c 0,52,53
 692 244 692 244 638 234 c 128,-1,54
 584 224 584 224 512 224 c 256,55,56
 440 224 440 224 386 234 c 128,-1,57
 332 244 332 244 296 259 c 0,58,59
 260 273 260 273 242 290 c 128,-1,60
 224 307 224 307 224 320 c 2,61,-1
 224 576 l 5,62,-1
 491 514 l 6,63,64
 496 513 496 513 501.5 512.5 c 128,-1,65
 507 512 507 512 512 512 c 256,66,67
 517 512 517 512 522.5 512.5 c 128,-1,68
 528 513 528 513 534 514 c 2,69,-1
 800 576 l 1,70,-1
 800 320 l 1,71,-1
 800 320 l 1,49,50
519 577 m 1,72,73
 517 576 517 576 515.5 576 c 128,-1,74
 514 576 514 576 512 576 c 256,75,76
 510 576 510 576 508.5 576 c 128,-1,77
 507 576 507 576 505 577 c 2,78,-1
 89 673 l 2,79,80
 83 674 83 674 78.5 677 c 128,-1,81
 74 680 74 680 71 684 c 256,82,83
 68 688 68 688 66 693 c 128,-1,84
 64 698 64 698 64 704 c 256,85,86
 64 710 64 710 66 715 c 128,-1,87
 68 720 68 720 71 724 c 256,88,89
 74 728 74 728 78.5 731 c 128,-1,90
 83 734 83 734 89 735 c 2,91,-1
 505 831 l 2,92,93
 507 832 507 832 508.5 832 c 128,-1,94
 510 832 510 832 512 832 c 256,95,96
 514 832 514 832 515.5 832 c 128,-1,97
 517 832 517 832 519 831 c 2,98,-1
 935 735 l 2,99,100
 941 734 941 734 945.5 731 c 128,-1,101
 950 728 950 728 953 724 c 256,102,103
 956 720 956 720 958 715 c 128,-1,104
 960 710 960 710 960 704 c 256,105,106
 960 698 960 698 958 693 c 128,-1,107
 956 688 956 688 953 684 c 256,108,109
 950 680 950 680 945.5 677 c 128,-1,110
 941 674 941 674 935 673 c 2,111,-1
 519 577 l 1,112,-1
 519 577 l 1,72,73
928 544 m 1,113,114
 928 551 928 551 930.5 556.5 c 128,-1,115
 933 562 933 562 937 567 c 0,116,117
 942 571 942 571 947.5 573.5 c 128,-1,118
 953 576 953 576 960 576 c 256,119,120
 967 576 967 576 972.5 573.5 c 128,-1,121
 978 571 978 571 983 567 c 0,122,123
 987 562 987 562 989.5 556.5 c 128,-1,124
 992 551 992 551 992 544 c 2,125,-1
 992 256 l 2,126,127
 992 249 992 249 989.5 243.5 c 128,-1,128
 987 238 987 238 983 233 c 0,129,130
 978 229 978 229 972.5 226.5 c 128,-1,131
 967 224 967 224 960 224 c 256,132,133
 953 224 953 224 947.5 226.5 c 128,-1,134
 942 229 942 229 937 233 c 0,135,136
 933 238 933 238 930.5 243.5 c 128,-1,137
 928 249 928 249 928 256 c 2,138,-1
 928 544 l 1,139,-1
 928 544 l 1,113,114
960 192 m 1,140,141
 973 192 973 192 985 177 c 128,-1,142
 997 162 997 162 1005 141 c 0,143,144
 1014 121 1014 121 1019 99 c 128,-1,145
 1024 77 1024 77 1024 64 c 256,146,147
 1024 51 1024 51 1019 39 c 128,-1,148
 1014 27 1014 27 1005 19 c 0,149,150
 997 10 997 10 985 5 c 128,-1,151
 973 0 973 0 960 0 c 256,152,153
 947 0 947 0 935 5 c 128,-1,154
 923 10 923 10 915 19 c 0,155,156
 906 27 906 27 901 39 c 128,-1,157
 896 51 896 51 896 64 c 256,158,159
 896 77 896 77 901 99 c 128,-1,160
 906 121 906 121 915 141 c 0,161,162
 923 162 923 162 935 177 c 128,-1,163
 947 192 947 192 960 192 c 1,164,-1
 960 192 l 1,140,141
EndSplineSet
EndChar

StartChar: uniE602
Encoding: 58882 58882 6
Width: 1024
Flags: W
LayerCount: 2
Back
Fore
SplineSet
941 877 m 1,0,1
 921 897 921 897 898.5 912.5 c 128,-1,2
 876 928 876 928 851 938 c 0,3,4
 827 949 827 949 801.5 954.5 c 128,-1,5
 776 960 776 960 750 960 c 0,6,7
 729 960 729 960 708.5 956 c 128,-1,8
 688 952 688 952 669 944 c 0,9,10
 650 937 650 937 632.5 925.5 c 128,-1,11
 615 914 615 914 601 900 c 2,12,-1
 445 743 l 1,13,14
 445 743 445 743 444.5 742.5 c 128,-1,15
 444 742 444 742 444 742 c 2,16,17
 443 742 443 742 443 741.5 c 128,-1,18
 443 741 443 741 443 741 c 1,19,-1
 443 741 l 1,20,-1
 113 408 l 2,21,22
 107 402 107 402 102 395.5 c 128,-1,23
 97 389 97 389 93 383 c 0,24,25
 89 376 89 376 85.5 368.5 c 128,-1,26
 82 361 82 361 80 353 c 2,27,-1
 5 81 l 2,28,29
 5 80 5 80 2.5 68 c 128,-1,30
 0 56 0 56 0 48 c 0,31,32
 0 25 0 25 9 4.5 c 128,-1,33
 18 -16 18 -16 33 -31 c 256,34,35
 48 -46 48 -46 68.5 -55 c 128,-1,36
 89 -64 89 -64 112 -64 c 0,37,38
 121 -64 121 -64 135 -61 c 128,-1,39
 149 -58 149 -58 149 -58 c 1,40,-1
 420 13 l 2,41,42
 428 16 428 16 435.5 19 c 128,-1,43
 443 22 443 22 450 26 c 256,44,45
 457 30 457 30 463 35 c 128,-1,46
 469 40 469 40 475 46 c 2,47,-1
 963 538 l 2,48,49
 997 571 997 571 1012 614 c 128,-1,50
 1027 657 1027 657 1023 703 c 0,51,52
 1020 749 1020 749 999.5 794 c 128,-1,53
 979 839 979 839 941 877 c 1,54,-1
 941 877 l 1,0,1
512 199 m 1,55,56
 511 209 511 209 509 220 c 128,-1,57
 507 231 507 231 505 241 c 0,58,59
 502 252 502 252 498 262.5 c 128,-1,60
 494 273 494 273 489 283 c 1,61,-1
 792 585 l 1,62,63
 799 563 799 563 800.5 541 c 128,-1,64
 802 519 802 519 798 498 c 0,65,66
 795 478 795 478 785.5 459 c 128,-1,67
 776 440 776 440 760 425 c 1,68,69
 760 425 760 425 760 425 c 129,-1,70
 760 425 760 425 760 424 c 1,71,-1
 760 424 l 1,72,-1
 513 175 l 1,73,74
 513 181 513 181 513 186.5 c 128,-1,75
 513 192 513 192 512 199 c 1,76,-1
 512 199 l 1,55,56
473 312 m 1,77,78
 469 319 469 319 464 326.5 c 128,-1,79
 459 334 459 334 454 341 c 256,80,81
 449 348 449 348 443 354.5 c 128,-1,82
 437 361 437 361 431 367 c 0,83,84
 424 374 424 374 416 381 c 128,-1,85
 408 388 408 388 400 394 c 0,86,87
 392 399 392 399 383 404.5 c 128,-1,88
 374 410 374 410 366 415 c 1,89,-1
 671 720 l 1,90,91
 680 716 680 716 688.5 711 c 128,-1,92
 697 706 697 706 706 701 c 0,93,94
 714 695 714 695 722 688 c 128,-1,95
 730 681 730 681 738 674 c 0,96,97
 744 667 744 667 750 660.5 c 128,-1,98
 756 654 756 654 761 647 c 0,99,100
 766 639 766 639 770.5 632 c 128,-1,101
 775 625 775 625 779 617 c 1,102,-1
 473 312 l 1,103,-1
 473 312 l 1,77,78
336 430 m 1,104,105
 324 434 324 434 313 437.5 c 128,-1,106
 302 441 302 441 290 444 c 0,107,108
 279 446 279 446 267 447.5 c 128,-1,109
 255 449 255 449 244 449 c 1,110,-1
 490 698 l 2,111,112
 504 711 504 711 521.5 720 c 128,-1,113
 539 729 539 729 558 733 c 0,114,115
 576 738 576 738 596.5 737.5 c 128,-1,116
 617 737 617 737 637 732 c 1,117,-1
 336 430 l 1,118,-1
 336 430 l 1,104,105
133 4 m 1,119,120
 131 3 131 3 124 1.5 c 128,-1,121
 117 0 117 0 112 0 c 0,122,123
 102 0 102 0 93 4 c 128,-1,124
 84 8 84 8 78 14 c 0,125,126
 71 21 71 21 67.5 29.5 c 128,-1,127
 64 38 64 38 64 48 c 0,128,129
 64 52 64 52 65.5 57.5 c 128,-1,130
 67 63 67 63 67 66 c 2,131,-1
 101 188 l 1,132,133
 115 188 115 188 129 185.5 c 128,-1,134
 143 183 143 183 157 178 c 0,135,136
 170 172 170 172 183 163.5 c 128,-1,137
 196 155 196 155 208 144 c 0,138,139
 220 132 220 132 228.5 119 c 128,-1,140
 237 106 237 106 243 92 c 0,141,142
 248 78 248 78 250.5 63.5 c 128,-1,143
 253 49 253 49 252 35 c 1,144,-1
 133 4 l 1,145,-1
 133 4 l 1,119,120
284 44 m 1,146,147
 284 60 284 60 280.5 76 c 128,-1,148
 277 92 277 92 270 108 c 256,149,150
 263 124 263 124 253.5 138.5 c 128,-1,151
 244 153 244 153 230 166 c 0,152,153
 218 179 218 179 203.5 189 c 128,-1,154
 189 199 189 199 174 205 c 0,155,156
 159 212 159 212 142.5 216 c 128,-1,157
 126 220 126 220 110 221 c 1,158,-1
 142 336 l 2,159,160
 144 342 144 342 147 347.5 c 128,-1,161
 150 353 150 353 154 358 c 0,162,163
 178 375 178 375 207.5 381.5 c 128,-1,164
 237 388 237 388 268 383 c 256,165,166
 299 378 299 378 329.5 363 c 128,-1,167
 360 348 360 348 386 322 c 0,168,169
 413 295 413 295 428.5 262.5 c 128,-1,170
 444 230 444 230 448 197 c 0,171,172
 452 165 452 165 443.5 134 c 128,-1,173
 435 103 435 103 414 80 c 0,174,175
 411 78 411 78 408 77 c 128,-1,176
 405 76 405 76 402 75 c 2,177,-1
 284 44 l 1,178,-1
 284 44 l 1,146,147
918 583 m 1,179,-1
 864 529 l 2,180,181
 864 534 864 534 864.5 539.5 c 128,-1,182
 865 545 865 545 864 551 c 0,183,184
 862 574 862 574 856 596.5 c 128,-1,185
 850 619 850 619 839 641 c 0,186,187
 829 662 829 662 815 682 c 128,-1,188
 801 702 801 702 783 719 c 0,189,190
 763 739 763 739 741 754 c 128,-1,191
 719 769 719 769 694 780 c 0,192,193
 670 790 670 790 644.5 795.5 c 128,-1,194
 619 801 619 801 593 801 c 1,195,-1
 646 855 l 2,196,197
 656 865 656 865 668 872.5 c 128,-1,198
 680 880 680 880 693 885 c 0,199,200
 706 891 706 891 720.5 893.5 c 128,-1,201
 735 896 735 896 750 896 c 0,202,203
 770 896 770 896 789 891.5 c 128,-1,204
 808 887 808 887 827 879 c 256,205,206
 846 871 846 871 863 859 c 128,-1,207
 880 847 880 847 895 832 c 0,208,209
 910 818 910 818 921 802 c 128,-1,210
 932 786 932 786 941 769 c 0,211,212
 949 752 949 752 953.5 734.5 c 128,-1,213
 958 717 958 717 960 699 c 0,214,215
 961 682 961 682 958.5 666 c 128,-1,216
 956 650 956 650 951 635 c 0,217,218
 946 621 946 621 937.5 607.5 c 128,-1,219
 929 594 929 594 918 583 c 1,220,-1
 918 583 l 1,179,-1
EndSplineSet
EndChar

StartChar: uniE603
Encoding: 58883 58883 7
Width: 1024
Flags: W
LayerCount: 2
Back
Fore
SplineSet
384 832 m 1,0,1
 384 859 384 859 394 882 c 128,-1,2
 404 905 404 905 421 923 c 0,3,4
 439 940 439 940 462 950 c 128,-1,5
 485 960 485 960 512 960 c 256,6,7
 539 960 539 960 562 950 c 128,-1,8
 585 940 585 940 603 923 c 0,9,10
 620 905 620 905 630 882 c 128,-1,11
 640 859 640 859 640 832 c 256,12,13
 640 805 640 805 630 782 c 128,-1,14
 620 759 620 759 603 741 c 0,15,16
 585 724 585 724 562 714 c 128,-1,17
 539 704 539 704 512 704 c 256,18,19
 485 704 485 704 462 714 c 128,-1,20
 439 724 439 724 421 741 c 0,21,22
 404 759 404 759 394 782 c 128,-1,23
 384 805 384 805 384 832 c 1,24,-1
 384 832 l 1,0,1
656 720 m 1,25,26
 656 746 656 746 666 769.5 c 128,-1,27
 676 793 676 793 693 810 c 256,28,29
 710 827 710 827 733.5 837.5 c 128,-1,30
 757 848 757 848 784 848 c 0,31,32
 810 848 810 848 833.5 837.5 c 128,-1,33
 857 827 857 827 874 810 c 256,34,35
 891 793 891 793 901.5 769.5 c 128,-1,36
 912 746 912 746 912 720 c 0,37,38
 912 693 912 693 901.5 669.5 c 128,-1,39
 891 646 891 646 874 629 c 256,40,41
 857 612 857 612 833.5 602 c 128,-1,42
 810 592 810 592 784 592 c 0,43,44
 757 592 757 592 733.5 602 c 128,-1,45
 710 612 710 612 693 629 c 256,46,47
 676 646 676 646 666 669.5 c 128,-1,48
 656 693 656 693 656 720 c 1,49,-1
 656 720 l 1,25,26
832 448 m 1,50,51
 832 461 832 461 837 473 c 128,-1,52
 842 485 842 485 851 493 c 0,53,54
 859 502 859 502 871 507 c 128,-1,55
 883 512 883 512 896 512 c 256,56,57
 909 512 909 512 921 507 c 128,-1,58
 933 502 933 502 941 493 c 0,59,60
 950 485 950 485 955 473 c 128,-1,61
 960 461 960 461 960 448 c 256,62,63
 960 435 960 435 955 423 c 128,-1,64
 950 411 950 411 941 403 c 0,65,66
 933 394 933 394 921 389 c 128,-1,67
 909 384 909 384 896 384 c 256,68,69
 883 384 883 384 871 389 c 128,-1,70
 859 394 859 394 851 403 c 0,71,72
 842 411 842 411 837 423 c 128,-1,73
 832 435 832 435 832 448 c 1,74,-1
 832 448 l 1,50,51
720 176 m 1,75,76
 720 190 720 190 725 201.5 c 128,-1,77
 730 213 730 213 738 222 c 0,78,79
 747 230 747 230 758.5 235 c 128,-1,80
 770 240 770 240 784 240 c 0,81,82
 797 240 797 240 808.5 235 c 128,-1,83
 820 230 820 230 829 222 c 0,84,85
 837 213 837 213 842.5 201.5 c 128,-1,86
 848 190 848 190 848 176 c 0,87,88
 848 163 848 163 842.5 151.5 c 128,-1,89
 837 140 837 140 829 131 c 0,90,91
 820 123 820 123 808.5 117.5 c 128,-1,92
 797 112 797 112 784 112 c 0,93,94
 770 112 770 112 758.5 117.5 c 128,-1,95
 747 123 747 123 738 131 c 0,96,97
 730 140 730 140 725 151.5 c 128,-1,98
 720 163 720 163 720 176 c 1,99,-1
 720 176 l 1,75,76
448 64 m 1,100,101
 448 64 448 64 448 64 c 129,-1,102
 448 64 448 64 448 64 c 1,103,104
 448 77 448 77 453 89 c 128,-1,105
 458 101 458 101 467 109 c 0,106,107
 475 118 475 118 487 123 c 128,-1,108
 499 128 499 128 512 128 c 256,109,110
 525 128 525 128 537 123 c 128,-1,111
 549 118 549 118 557 109 c 0,112,113
 566 101 566 101 571 89 c 128,-1,114
 576 77 576 77 576 64 c 1,115,116
 576 64 576 64 576 64 c 129,-1,117
 576 64 576 64 576 64 c 1,118,119
 576 51 576 51 571 39 c 128,-1,120
 566 27 566 27 557 19 c 0,121,122
 549 10 549 10 537 5 c 128,-1,123
 525 0 525 0 512 0 c 256,124,125
 499 0 499 0 487 5 c 128,-1,126
 475 10 475 10 467 19 c 0,127,128
 458 27 458 27 453 39 c 128,-1,129
 448 51 448 51 448 64 c 1,130,-1
 448 64 l 1,100,101
176 176 m 1,131,132
 176 176 176 176 176 176 c 129,-1,133
 176 176 176 176 176 176 c 1,134,135
 176 190 176 190 181.5 201.5 c 128,-1,136
 187 213 187 213 195 222 c 0,137,138
 204 230 204 230 215.5 235 c 128,-1,139
 227 240 227 240 240 240 c 0,140,141
 254 240 254 240 265.5 235 c 128,-1,142
 277 230 277 230 286 222 c 0,143,144
 294 213 294 213 299 201.5 c 128,-1,145
 304 190 304 190 304 176 c 1,146,147
 304 176 304 176 304 176 c 129,-1,148
 304 176 304 176 304 176 c 1,149,150
 304 163 304 163 299 151.5 c 128,-1,151
 294 140 294 140 286 131 c 0,152,153
 277 123 277 123 265.5 117.5 c 128,-1,154
 254 112 254 112 240 112 c 0,155,156
 227 112 227 112 215.5 117.5 c 128,-1,157
 204 123 204 123 195 131 c 0,158,159
 187 140 187 140 181.5 151.5 c 128,-1,160
 176 163 176 163 176 176 c 1,161,-1
 176 176 l 1,131,132
144 720 m 1,162,163
 144 720 144 720 144 720 c 129,-1,164
 144 720 144 720 144 720 c 1,165,166
 144 739 144 739 152 756.5 c 128,-1,167
 160 774 160 774 173 787 c 256,168,169
 186 800 186 800 203.5 808 c 128,-1,170
 221 816 221 816 240 816 c 0,171,172
 260 816 260 816 277.5 808 c 128,-1,173
 295 800 295 800 308 787 c 256,174,175
 321 774 321 774 328.5 756.5 c 128,-1,176
 336 739 336 739 336 720 c 1,177,178
 336 720 336 720 336 720 c 129,-1,179
 336 720 336 720 336 720 c 1,180,181
 336 700 336 700 328.5 682.5 c 128,-1,182
 321 665 321 665 308 652 c 256,183,184
 295 639 295 639 277.5 631.5 c 128,-1,185
 260 624 260 624 240 624 c 0,186,187
 221 624 221 624 203.5 631.5 c 128,-1,188
 186 639 186 639 173 652 c 256,189,190
 160 665 160 665 152 682.5 c 128,-1,191
 144 700 144 700 144 720 c 1,192,-1
 144 720 l 1,162,163
56 448 m 1,193,194
 56 463 56 463 61.5 476 c 128,-1,195
 67 489 67 489 77 499 c 256,196,197
 87 509 87 509 100 514.5 c 128,-1,198
 113 520 113 520 128 520 c 256,199,200
 143 520 143 520 156 514.5 c 128,-1,201
 169 509 169 509 179 499 c 256,202,203
 189 489 189 489 194.5 476 c 128,-1,204
 200 463 200 463 200 448 c 256,205,206
 200 433 200 433 194.5 420 c 128,-1,207
 189 407 189 407 179 397 c 256,208,209
 169 387 169 387 156 381.5 c 128,-1,210
 143 376 143 376 128 376 c 256,211,212
 113 376 113 376 100 381.5 c 128,-1,213
 87 387 87 387 77 397 c 256,214,215
 67 407 67 407 61.5 420 c 128,-1,216
 56 433 56 433 56 448 c 1,217,-1
 56 448 l 1,193,194
EndSplineSet
EndChar

StartChar: uniE604
Encoding: 58884 58884 8
Width: 1024
Flags: W
LayerCount: 2
Back
Fore
SplineSet
1024 448 m 1,0,1
 1024 473 1024 473 1021 498 c 128,-1,2
 1018 523 1018 523 1012 547 c 0,3,4
 1007 572 1007 572 999 596 c 128,-1,5
 991 620 991 620 981 642 c 0,6,7
 971 665 971 665 959 687 c 128,-1,8
 947 709 947 709 933 729 c 0,9,10
 919 750 919 750 902.5 768.5 c 128,-1,11
 886 787 886 787 868 804 c 0,12,13
 851 822 851 822 831.5 837 c 128,-1,14
 812 852 812 852 791 865 c 0,15,16
 770 879 770 879 748 890 c 128,-1,17
 726 901 726 901 703 910 c 0,18,19
 681 919 681 919 657 925.5 c 128,-1,20
 633 932 633 932 609 937 c 0,21,22
 585 941 585 941 560.5 943 c 128,-1,23
 536 945 536 945 512 944 c 0,24,25
 488 944 488 944 463.5 941 c 128,-1,26
 439 938 439 938 416 933 c 0,27,28
 392 927 392 927 369 919.5 c 128,-1,29
 346 912 346 912 324 903 c 0,30,31
 302 893 302 893 280.5 881 c 128,-1,32
 259 869 259 869 240 855 c 0,33,34
 220 842 220 842 202 826 c 128,-1,35
 184 810 184 810 167 793 c 256,36,37
 150 776 150 776 135.5 757 c 128,-1,38
 121 738 121 738 108 718 c 256,39,40
 95 698 95 698 84 676.5 c 128,-1,41
 73 655 73 655 65 633 c 0,42,43
 56 611 56 611 49.5 588 c 128,-1,44
 43 565 43 565 39 542 c 256,45,46
 35 519 35 519 33 495.5 c 128,-1,47
 31 472 31 472 32 448 c 0,48,49
 32 424 32 424 35 401 c 128,-1,50
 38 378 38 378 43 355 c 256,51,52
 48 332 48 332 55.5 309.5 c 128,-1,53
 63 287 63 287 72 266 c 0,54,55
 82 244 82 244 93.5 224 c 128,-1,56
 105 204 105 204 118 185 c 256,57,58
 131 166 131 166 146.5 148 c 128,-1,59
 162 130 162 130 178 114 c 0,60,61
 195 98 195 98 213 84 c 128,-1,62
 231 70 231 70 251 57 c 0,63,64
 270 45 270 45 290.5 34.5 c 128,-1,65
 311 24 311 24 333 16 c 0,66,67
 354 7 354 7 376.5 1 c 128,-1,68
 399 -5 399 -5 421 -9 c 0,69,70
 444 -13 444 -13 466.5 -15 c 128,-1,71
 489 -17 489 -17 512 -16 c 0,72,73
 535 -16 535 -16 557.5 -13 c 128,-1,74
 580 -10 580 -10 602 -5 c 256,75,76
 624 0 624 0 645.5 7 c 128,-1,77
 667 14 667 14 688 23 c 256,78,79
 709 32 709 32 728.5 43 c 128,-1,80
 748 54 748 54 766 67 c 0,81,82
 785 80 785 80 802 94.5 c 128,-1,83
 819 109 819 109 834 126 c 0,84,85
 850 142 850 142 864 159.5 c 128,-1,86
 878 177 878 177 890 196 c 256,87,88
 902 215 902 215 912 234.5 c 128,-1,89
 922 254 922 254 930 275 c 0,90,91
 935 288 935 288 939 300.5 c 128,-1,92
 943 313 943 313 946 326 c 256,93,94
 949 339 949 339 951.5 352.5 c 128,-1,95
 954 366 954 366 956 379 c 0,96,97
 957 379 957 379 958 379 c 128,-1,98
 959 379 959 379 960 379 c 0,99,100
 973 379 973 379 985 384 c 128,-1,101
 997 389 997 389 1005 397 c 0,102,103
 1014 406 1014 406 1019 417.5 c 128,-1,104
 1024 429 1024 429 1024 443 c 0,105,106
 1024 444 1024 444 1024 445.5 c 128,-1,107
 1024 447 1024 447 1024 448 c 1,108,-1
 1024 448 l 1,109,-1
 1024 448 l 1,0,1
922 278 m 1,110,111
 914 258 914 258 903 239 c 128,-1,112
 892 220 892 220 880 202 c 0,113,114
 867 185 867 185 853 168.5 c 128,-1,115
 839 152 839 152 823 137 c 0,116,117
 808 122 808 122 790.5 108.5 c 128,-1,118
 773 95 773 95 755 84 c 0,119,120
 737 72 737 72 718 62.5 c 128,-1,121
 699 53 699 53 679 45 c 256,122,123
 659 37 659 37 638.5 31.5 c 128,-1,124
 618 26 618 26 597 22 c 0,125,126
 576 19 576 19 554.5 17 c 128,-1,127
 533 15 533 15 512 16 c 0,128,129
 491 16 491 16 470 19 c 128,-1,130
 449 22 449 22 428 26 c 0,131,132
 407 31 407 31 387 37.5 c 128,-1,133
 367 44 367 44 348 52 c 0,134,135
 329 61 329 61 310.5 71.5 c 128,-1,136
 292 82 292 82 275 94 c 256,137,138
 258 106 258 106 242.5 119.5 c 128,-1,139
 227 133 227 133 212 148 c 0,140,141
 198 163 198 163 185 179.5 c 128,-1,142
 172 196 172 196 161 214 c 0,143,144
 150 231 150 231 140.5 249.5 c 128,-1,145
 131 268 131 268 124 287 c 0,146,147
 116 306 116 306 110.5 326 c 128,-1,148
 105 346 105 346 102 366 c 0,149,150
 98 387 98 387 96.5 407.5 c 128,-1,151
 95 428 95 428 96 448 c 0,152,153
 96 468 96 468 98.5 488.5 c 128,-1,154
 101 509 101 509 106 529 c 0,155,156
 110 549 110 549 116.5 568 c 128,-1,157
 123 587 123 587 131 606 c 0,158,159
 139 624 139 624 149 641.5 c 128,-1,160
 159 659 159 659 171 676 c 0,161,162
 183 692 183 692 196 707.5 c 128,-1,163
 209 723 209 723 223 737 c 0,164,165
 238 750 238 750 253.5 762.5 c 128,-1,166
 269 775 269 775 286 786 c 0,167,168
 302 796 302 796 320.5 805 c 128,-1,169
 339 814 339 814 356 821 c 0,170,171
 376 829 376 829 394.5 834 c 128,-1,172
 413 839 413 839 434 842 c 0,173,174
 452 846 452 846 472 847.5 c 128,-1,175
 492 849 492 849 511 848 c 0,176,177
 532 848 532 848 551 845.5 c 128,-1,178
 570 843 570 843 590 838 c 0,179,180
 608 834 608 834 627 828 c 128,-1,181
 646 822 646 822 663 814 c 0,182,183
 681 806 681 806 697.5 796.5 c 128,-1,184
 714 787 714 787 731 776 c 0,185,186
 746 764 746 764 761 751.5 c 128,-1,187
 776 739 776 739 788 725 c 0,188,189
 802 711 802 711 813.5 696 c 128,-1,190
 825 681 825 681 836 665 c 0,191,192
 846 648 846 648 855 631 c 128,-1,193
 864 614 864 614 870 596 c 0,194,195
 877 579 877 579 881.5 560.5 c 128,-1,196
 886 542 886 542 891 523 c 0,197,198
 893 505 893 505 895 486 c 128,-1,199
 897 467 897 467 895 448 c 1,200,-1
 896 448 l 2,201,202
 895 447 895 447 895.5 445.5 c 128,-1,203
 896 444 896 444 895 443 c 0,204,205
 896 430 896 430 900 419 c 128,-1,206
 904 408 904 408 913 400 c 0,207,208
 919 391 919 391 930 385.5 c 128,-1,209
 941 380 941 380 952 379 c 1,210,211
 951 366 951 366 947.5 353 c 128,-1,212
 944 340 944 340 941 328 c 0,213,214
 936 315 936 315 932 302.5 c 128,-1,215
 928 290 928 290 921 278 c 1,216,-1
 922 278 l 1,110,111
EndSplineSet
EndChar

StartChar: uniE605
Encoding: 58885 58885 9
Width: 1024
Flags: W
LayerCount: 2
Back
Fore
SplineSet
192 448 m 1,0,1
 192 453 192 453 192 457.5 c 128,-1,2
 192 462 192 462 193 466 c 0,3,4
 193 471 193 471 193.5 475.5 c 128,-1,5
 194 480 194 480 194 484 c 2,6,-1
 9 544 l 1,7,8
 7 532 7 532 5 520.5 c 128,-1,9
 3 509 3 509 2 497 c 256,10,11
 1 485 1 485 0.5 472.5 c 128,-1,12
 0 460 0 460 0 448 c 0,13,14
 0 393 0 393 11.5 341 c 128,-1,15
 23 289 23 289 44 241 c 0,16,17
 65 194 65 194 94.5 152 c 128,-1,18
 124 110 124 110 162 75 c 1,19,-1
 276 232 l 1,20,21
 256 253 256 253 240.5 278 c 128,-1,22
 225 303 225 303 214 330 c 0,23,24
 204 357 204 357 198 387 c 128,-1,25
 192 417 192 417 192 448 c 1,26,-1
 192 448 l 1,0,1
832 448 m 1,27,28
 832 417 832 417 826 387 c 128,-1,29
 820 357 820 357 810 330 c 0,30,31
 799 303 799 303 783.5 278 c 128,-1,32
 768 253 768 253 748 232 c 1,33,-1
 862 75 l 1,34,35
 900 110 900 110 929.5 152 c 128,-1,36
 959 194 959 194 980 241 c 0,37,38
 1001 289 1001 289 1012.5 341 c 128,-1,39
 1024 393 1024 393 1024 448 c 0,40,41
 1024 460 1024 460 1023.5 472.5 c 128,-1,42
 1023 485 1023 485 1022 497 c 256,43,44
 1021 509 1021 509 1019 520.5 c 128,-1,45
 1017 532 1017 532 1015 544 c 1,46,-1
 830 484 l 2,47,48
 830 480 830 480 830.5 475.5 c 128,-1,49
 831 471 831 471 831 466 c 0,50,51
 832 462 832 462 832 457.5 c 128,-1,52
 832 453 832 453 832 448 c 1,53,-1
 832 448 l 1,27,28
576 762 m 1,54,55
 610 755 610 755 641.5 740.5 c 128,-1,56
 673 726 673 726 701 706 c 0,57,58
 728 686 728 686 751 660.5 c 128,-1,59
 774 635 774 635 790 606 c 1,60,-1
 975 666 l 1,61,62
 948 724 948 724 907 773.5 c 128,-1,63
 866 823 866 823 815 861 c 0,64,65
 763 899 763 899 702.5 923.5 c 128,-1,66
 642 948 642 948 576 956 c 1,67,-1
 576 762 l 1,68,-1
 576 762 l 1,54,55
234 606 m 1,69,70
 250 635 250 635 273 660.5 c 128,-1,71
 296 686 296 686 323 706 c 0,72,73
 351 726 351 726 382.5 740.5 c 128,-1,74
 414 755 414 755 448 762 c 1,75,-1
 448 956 l 1,76,77
 382 948 382 948 321.5 923.5 c 128,-1,78
 261 899 261 899 209 861 c 0,79,80
 158 823 158 823 117 773.5 c 128,-1,81
 76 724 76 724 49 666 c 1,82,-1
 234 606 l 1,83,-1
 234 606 l 1,69,70
645 157 m 1,84,85
 629 150 629 150 613 144.5 c 128,-1,86
 597 139 597 139 581 135 c 0,87,88
 564 132 564 132 547 130 c 128,-1,89
 530 128 530 128 512 128 c 256,90,91
 494 128 494 128 477 130 c 128,-1,92
 460 132 460 132 443 135 c 0,93,94
 427 139 427 139 411 144.5 c 128,-1,95
 395 150 395 150 379 157 c 1,96,-1
 265 -1 l 1,97,98
 293 -16 293 -16 322 -27.5 c 128,-1,99
 351 -39 351 -39 382 -47 c 0,100,101
 413 -56 413 -56 445.5 -60 c 128,-1,102
 478 -64 478 -64 512 -64 c 256,103,104
 546 -64 546 -64 578.5 -60 c 128,-1,105
 611 -56 611 -56 642 -47 c 0,106,107
 673 -39 673 -39 702 -27.5 c 128,-1,108
 731 -16 731 -16 759 -1 c 1,109,-1
 645 157 l 1,110,-1
 645 157 l 1,84,85
EndSplineSet
EndChar

StartChar: uniE606
Encoding: 58886 58886 10
Width: 1024
Flags: W
LayerCount: 2
Back
Fore
SplineSet
512 960 m 1,0,1
 406 960 406 960 312.5 920 c 128,-1,2
 219 880 219 880 150 810 c 0,3,4
 80 741 80 741 40 647.5 c 128,-1,5
 0 554 0 554 0 448 c 256,6,7
 0 342 0 342 40 248.5 c 128,-1,8
 80 155 80 155 150 86 c 0,9,10
 219 16 219 16 312.5 -24 c 128,-1,11
 406 -64 406 -64 512 -64 c 256,12,13
 618 -64 618 -64 711.5 -24 c 128,-1,14
 805 16 805 16 874 86 c 0,15,16
 944 155 944 155 984 248.5 c 128,-1,17
 1024 342 1024 342 1024 448 c 256,18,19
 1024 554 1024 554 984 647.5 c 128,-1,20
 944 741 944 741 874 810 c 0,21,22
 805 880 805 880 711.5 920 c 128,-1,23
 618 960 618 960 512 960 c 1,24,-1
 512 960 l 1,0,1
512 704 m 1,25,26
 565 704 565 704 611.5 684 c 128,-1,27
 658 664 658 664 693 629 c 256,28,29
 728 594 728 594 748 547.5 c 128,-1,30
 768 501 768 501 768 448 c 256,31,32
 768 395 768 395 748 348.5 c 128,-1,33
 728 302 728 302 693 267 c 256,34,35
 658 232 658 232 611.5 212 c 128,-1,36
 565 192 565 192 512 192 c 256,37,38
 459 192 459 192 412.5 212 c 128,-1,39
 366 232 366 232 331 267 c 256,40,41
 296 302 296 302 276 348.5 c 128,-1,42
 256 395 256 395 256 448 c 256,43,44
 256 501 256 501 276 547.5 c 128,-1,45
 296 594 296 594 331 629 c 256,46,47
 366 664 366 664 412.5 684 c 128,-1,48
 459 704 459 704 512 704 c 1,49,-1
 512 704 l 1,25,26
817 143 m 1,50,51
 787 112 787 112 751.5 88.5 c 128,-1,52
 716 65 716 65 677 49 c 0,53,54
 639 33 639 33 597 24.5 c 128,-1,55
 555 16 555 16 512 16 c 256,56,57
 469 16 469 16 427 24.5 c 128,-1,58
 385 33 385 33 347 49 c 0,59,60
 308 65 308 65 272.5 88.5 c 128,-1,61
 237 112 237 112 207 143 c 0,62,63
 176 173 176 173 152.5 208.5 c 128,-1,64
 129 244 129 244 113 283 c 0,65,66
 97 321 97 321 88.5 363 c 128,-1,67
 80 405 80 405 80 448 c 256,68,69
 80 491 80 491 88.5 533 c 128,-1,70
 97 575 97 575 113 613 c 0,71,72
 129 652 129 652 152.5 687.5 c 128,-1,73
 176 723 176 723 207 753 c 1,74,-1
 274 686 l 1,75,76
 274 686 274 686 274 686 c 129,-1,77
 274 686 274 686 274 686 c 1,78,79
 225 636 225 636 200.5 574.5 c 128,-1,80
 176 513 176 513 176 448 c 256,81,82
 176 383 176 383 200.5 321.5 c 128,-1,83
 225 260 225 260 274 210 c 0,84,85
 298 187 298 187 325.5 168.5 c 128,-1,86
 353 150 353 150 383 137 c 0,87,88
 414 125 414 125 446 118.5 c 128,-1,89
 478 112 478 112 512 112 c 256,90,91
 546 112 546 112 578 118.5 c 128,-1,92
 610 125 610 125 641 137 c 0,93,94
 671 150 671 150 698.5 168.5 c 128,-1,95
 726 187 726 187 750 210 c 0,96,97
 799 260 799 260 823.5 321.5 c 128,-1,98
 848 383 848 383 848 448 c 256,99,100
 848 513 848 513 823.5 574.5 c 128,-1,101
 799 636 799 636 750 686 c 1,102,-1
 817 753 l 1,103,104
 848 723 848 723 871.5 687.5 c 128,-1,105
 895 652 895 652 911 613 c 0,106,107
 927 575 927 575 935.5 533 c 128,-1,108
 944 491 944 491 944 448 c 256,109,110
 944 405 944 405 935.5 363 c 128,-1,111
 927 321 927 321 911 283 c 0,112,113
 895 244 895 244 871.5 208.5 c 128,-1,114
 848 173 848 173 817 143 c 1,115,-1
 817 143 l 1,50,51
EndSplineSet
EndChar

StartChar: uniE607
Encoding: 58887 58887 11
Width: 1024
Flags: W
LayerCount: 2
Back
Fore
SplineSet
512 960 m 1,0,1
 407 960 407 960 315 921 c 128,-1,2
 223 882 223 882 154 814 c 256,3,4
 85 746 85 746 44 655 c 128,-1,5
 3 564 3 564 0 460 c 1,6,7
 2 551 2 551 35.5 630.5 c 128,-1,8
 69 710 69 710 126 769 c 0,9,10
 182 828 182 828 256.5 862 c 128,-1,11
 331 896 331 896 416 896 c 0,12,13
 502 896 502 896 578 861 c 128,-1,14
 654 826 654 826 710 765 c 0,15,16
 767 704 767 704 799.5 622.5 c 128,-1,17
 832 541 832 541 832 448 c 0,18,19
 832 428 832 428 839.5 410.5 c 128,-1,20
 847 393 847 393 860 380 c 256,21,22
 873 367 873 367 890.5 359.5 c 128,-1,23
 908 352 908 352 928 352 c 256,24,25
 948 352 948 352 965.5 359.5 c 128,-1,26
 983 367 983 367 996 380 c 256,27,28
 1009 393 1009 393 1016.5 410.5 c 128,-1,29
 1024 428 1024 428 1024 448 c 0,30,31
 1024 554 1024 554 984 647.5 c 128,-1,32
 944 741 944 741 874 810 c 0,33,34
 805 880 805 880 711.5 920 c 128,-1,35
 618 960 618 960 512 960 c 1,36,-1
 512 960 l 1,0,1
512 -64 m 1,37,38
 617 -64 617 -64 709 -25 c 128,-1,39
 801 14 801 14 870 82 c 256,40,41
 939 150 939 150 980 241 c 128,-1,42
 1021 332 1021 332 1024 436 c 1,43,44
 1022 345 1022 345 988.5 265.5 c 128,-1,45
 955 186 955 186 898 127 c 0,46,47
 842 68 842 68 767.5 34 c 128,-1,48
 693 0 693 0 608 0 c 0,49,50
 522 0 522 0 446 35 c 128,-1,51
 370 70 370 70 314 131 c 0,52,53
 257 192 257 192 224.5 273.5 c 128,-1,54
 192 355 192 355 192 448 c 0,55,56
 192 468 192 468 184.5 485.5 c 128,-1,57
 177 503 177 503 164 516 c 256,58,59
 151 529 151 529 133.5 536.5 c 128,-1,60
 116 544 116 544 96 544 c 256,61,62
 76 544 76 544 58.5 536.5 c 128,-1,63
 41 529 41 529 28 516 c 256,64,65
 15 503 15 503 7.5 485.5 c 128,-1,66
 0 468 0 468 0 448 c 0,67,68
 0 342 0 342 40 248.5 c 128,-1,69
 80 155 80 155 150 86 c 0,70,71
 219 16 219 16 312.5 -24 c 128,-1,72
 406 -64 406 -64 512 -64 c 1,73,-1
 512 -64 l 1,37,38
EndSplineSet
EndChar

StartChar: uniE608
Encoding: 58888 58888 12
Width: 1024
Flags: W
LayerCount: 2
Back
Fore
SplineSet
1024 576 m 1,0,-1
 640 576 l 1,1,-1
 784 720 l 1,2,3
 756 747 756 747 725 768 c 128,-1,4
 694 789 694 789 659 803 c 0,5,6
 625 817 625 817 587.5 824.5 c 128,-1,7
 550 832 550 832 512 832 c 256,8,9
 474 832 474 832 436.5 824.5 c 128,-1,10
 399 817 399 817 365 803 c 0,11,12
 330 789 330 789 299 768 c 128,-1,13
 268 747 268 747 240 720 c 0,14,15
 213 692 213 692 192 661 c 128,-1,16
 171 630 171 630 157 595 c 0,17,18
 143 561 143 561 135.5 523.5 c 128,-1,19
 128 486 128 486 128 448 c 256,20,21
 128 410 128 410 135.5 372.5 c 128,-1,22
 143 335 143 335 157 301 c 0,23,24
 171 266 171 266 192 235 c 128,-1,25
 213 204 213 204 240 176 c 0,26,27
 268 149 268 149 299 128 c 128,-1,28
 330 107 330 107 365 93 c 0,29,30
 399 79 399 79 436.5 71.5 c 128,-1,31
 474 64 474 64 512 64 c 256,32,33
 550 64 550 64 587.5 71.5 c 128,-1,34
 625 79 625 79 659 93 c 0,35,36
 694 107 694 107 725 128 c 128,-1,37
 756 149 756 149 784 176 c 0,38,39
 788 181 788 181 792.5 185.5 c 128,-1,40
 797 190 797 190 801 195 c 1,41,-1
 897 111 l 1,42,43
 862 71 862 71 819 38.5 c 128,-1,44
 776 6 776 6 727 -17 c 0,45,46
 678 -39 678 -39 624 -51.5 c 128,-1,47
 570 -64 570 -64 512 -64 c 0,48,49
 406 -64 406 -64 312.5 -24 c 128,-1,50
 219 16 219 16 150 86 c 0,51,52
 80 155 80 155 40 248.5 c 128,-1,53
 0 342 0 342 0 448 c 256,54,55
 0 554 0 554 40 647.5 c 128,-1,56
 80 741 80 741 150 810 c 0,57,58
 219 880 219 880 312.5 920 c 128,-1,59
 406 960 406 960 512 960 c 0,60,61
 565 960 565 960 615 949.5 c 128,-1,62
 665 939 665 939 711 920 c 0,63,64
 757 900 757 900 798 872.5 c 128,-1,65
 839 845 839 845 874 810 c 1,66,-1
 1024 960 l 1,67,-1
 1024 576 l 1,68,-1
 1024 576 l 1,0,-1
EndSplineSet
EndChar

StartChar: uniE609
Encoding: 58889 58889 13
Width: 1024
Flags: W
LayerCount: 2
Back
Fore
SplineSet
853 960 m 1,0,-1
 170 960 l 2,1,2
 135 960 135 960 103.5 946.5 c 128,-1,3
 72 933 72 933 50 910 c 0,4,5
 26 887 26 887 13 856 c 128,-1,6
 0 825 0 825 -1 789 c 2,7,-1
 0 107 l 2,8,9
 -1 71 -1 71 13 40 c 128,-1,10
 27 9 27 9 49 -14 c 0,11,12
 73 -37 73 -37 103.5 -50.5 c 128,-1,13
 134 -64 134 -64 171 -64 c 2,14,-1
 852 -64 l 2,15,16
 889 -64 889 -64 919.5 -50.5 c 128,-1,17
 950 -37 950 -37 974 -14 c 0,18,19
 996 9 996 9 1010 40 c 128,-1,20
 1024 71 1024 71 1023 107 c 2,21,-1
 1024 789 l 2,22,23
 1023 825 1023 825 1010 856 c 128,-1,24
 997 887 997 887 973 910 c 0,25,26
 951 933 951 933 919.5 946.5 c 128,-1,27
 888 960 888 960 853 960 c 1,28,-1
 853 960 l 1,0,-1
837 618 m 1,29,30
 838 613 838 613 838 607.5 c 128,-1,31
 838 602 838 602 839 596 c 0,32,33
 838 511 838 511 807 424.5 c 128,-1,34
 776 338 776 338 714 268 c 0,35,36
 655 198 655 198 565 153.5 c 128,-1,37
 475 109 475 109 360 109 c 0,38,39
 323 109 323 109 289.5 114 c 128,-1,40
 256 119 256 119 222 129 c 0,41,42
 191 139 191 139 160 153.5 c 128,-1,43
 129 168 129 168 102 186 c 1,44,45
 106 185 106 185 111.5 184.5 c 128,-1,46
 117 184 117 184 121 184 c 0,47,48
 127 184 127 184 131.5 183.5 c 128,-1,49
 136 183 136 183 142 183 c 0,50,51
 171 183 171 183 199.5 188 c 128,-1,52
 228 193 228 193 254 203 c 0,53,54
 281 212 281 212 304.5 226 c 128,-1,55
 328 240 328 240 351 257 c 1,56,57
 322 257 322 257 297.5 266 c 128,-1,58
 273 275 273 275 252 291 c 0,59,60
 232 307 232 307 216.5 328.5 c 128,-1,61
 201 350 201 350 194 376 c 1,62,63
 201 374 201 374 209 373.5 c 128,-1,64
 217 373 217 373 225 373 c 0,65,66
 231 373 231 373 236.5 373 c 128,-1,67
 242 373 242 373 248 374 c 0,68,69
 253 375 253 375 259 376 c 128,-1,70
 265 377 265 377 269 379 c 1,71,72
 241 384 241 384 216 399.5 c 128,-1,73
 191 415 191 415 174 437 c 0,74,75
 154 460 154 460 144.5 487.5 c 128,-1,76
 135 515 135 515 134 546 c 0,77,78
 135 547 135 547 134.5 547.5 c 128,-1,79
 134 548 134 548 135 549 c 0,80,81
 142 544 142 544 152 540 c 128,-1,82
 162 536 162 536 170 533 c 0,83,84
 181 531 181 531 190.5 529.5 c 128,-1,85
 200 528 200 528 211 527 c 1,86,87
 193 539 193 539 180 554 c 128,-1,88
 167 569 167 569 156 588 c 0,89,90
 147 606 147 606 141 626.5 c 128,-1,91
 135 647 135 647 136 670 c 0,92,93
 135 681 135 681 137 692.5 c 128,-1,94
 139 704 139 704 141 715 c 0,95,96
 145 726 145 726 149 736 c 128,-1,97
 153 746 153 746 159 756 c 1,98,99
 189 717 189 717 228 685 c 128,-1,100
 267 653 267 653 310 630 c 0,101,102
 355 607 355 607 403.5 593.5 c 128,-1,103
 452 580 452 580 506 577 c 1,104,105
 504 582 504 582 503.5 586.5 c 128,-1,106
 503 591 503 591 502 596 c 0,107,108
 502 601 502 601 501 606 c 128,-1,109
 500 611 500 611 501 616 c 0,110,111
 500 651 500 651 514 682.5 c 128,-1,112
 528 714 528 714 550 737 c 0,113,114
 574 760 574 760 604 773.5 c 128,-1,115
 634 787 634 787 670 787 c 0,116,117
 687 787 687 787 704.5 783.5 c 128,-1,118
 722 780 722 780 737 772 c 0,119,120
 753 765 753 765 766.5 755 c 128,-1,121
 780 745 780 745 793 733 c 1,122,123
 806 736 806 736 820.5 740 c 128,-1,124
 835 744 835 744 847 749 c 0,125,126
 861 755 861 755 873.5 761 c 128,-1,127
 886 767 886 767 899 775 c 1,128,129
 894 760 894 760 887 746 c 128,-1,130
 880 732 880 732 870 720 c 0,131,132
 861 708 861 708 849 698 c 128,-1,133
 837 688 837 688 825 680 c 1,134,135
 837 681 837 681 850 683.5 c 128,-1,136
 863 686 863 686 874 690 c 0,137,138
 887 693 887 693 898.5 697.5 c 128,-1,139
 910 702 910 702 922 707 c 1,140,141
 913 694 913 694 903.5 682 c 128,-1,142
 894 670 894 670 883 659 c 0,143,144
 873 648 873 648 861 637.5 c 128,-1,145
 849 627 849 627 838 618 c 1,146,-1
 837 618 l 1,29,30
EndSplineSet
EndChar

StartChar: uniE60A
Encoding: 58890 58890 14
Width: 1024
Flags: W
LayerCount: 2
Back
Fore
SplineSet
1024 766 m 1,0,1
 1010 760 1010 760 995.5 754.5 c 128,-1,2
 981 749 981 749 965 746 c 0,3,4
 950 741 950 741 934.5 738 c 128,-1,5
 919 735 919 735 903 733 c 1,6,7
 920 743 920 743 934 755 c 128,-1,8
 948 767 948 767 960 783 c 0,9,10
 972 797 972 797 981 814 c 128,-1,11
 990 831 990 831 996 849 c 1,12,13
 980 841 980 841 964 832.5 c 128,-1,14
 948 824 948 824 932 819 c 0,15,16
 915 811 915 811 897.5 806.5 c 128,-1,17
 880 802 880 802 862 798 c 1,18,19
 848 814 848 814 830.5 826 c 128,-1,20
 813 838 813 838 794 847 c 0,21,22
 774 855 774 855 753 860 c 128,-1,23
 732 865 732 865 709 864 c 0,24,25
 665 865 665 865 627 848 c 128,-1,26
 589 831 589 831 560 804 c 0,27,28
 532 774 532 774 515.5 736.5 c 128,-1,29
 499 699 499 699 499 654 c 0,30,31
 499 649 499 649 499.5 642.5 c 128,-1,32
 500 636 500 636 500 631 c 0,33,34
 501 624 501 624 502 618.5 c 128,-1,35
 503 613 503 613 504 606 c 1,36,37
 439 610 439 610 377.5 626.5 c 128,-1,38
 316 643 316 643 261 673 c 0,39,40
 206 700 206 700 158 739.5 c 128,-1,41
 110 779 110 779 71 826 c 1,42,43
 65 815 65 815 59.5 802 c 128,-1,44
 54 789 54 789 50 777 c 0,45,46
 47 762 47 762 45 748.5 c 128,-1,47
 43 735 43 735 43 720 c 0,48,49
 43 694 43 694 49.5 668 c 128,-1,50
 56 642 56 642 68 620 c 0,51,52
 81 597 81 597 98 578.5 c 128,-1,53
 115 560 115 560 136 545 c 1,54,55
 123 547 123 547 110.5 548 c 128,-1,56
 98 549 98 549 86 554 c 0,57,58
 74 556 74 556 63 561.5 c 128,-1,59
 52 567 52 567 41 571 c 0,60,61
 41 572 41 572 41 570.5 c 128,-1,62
 41 569 41 569 41 570 c 1,63,64
 41 531 41 531 54 497 c 128,-1,65
 67 463 67 463 89 435 c 0,66,67
 112 409 112 409 143 389.5 c 128,-1,68
 174 370 174 370 210 364 c 1,69,70
 203 361 203 361 196 360 c 128,-1,71
 189 359 189 359 183 357 c 0,72,73
 176 357 176 357 168.5 356 c 128,-1,74
 161 355 161 355 154 356 c 0,75,76
 149 355 149 355 144 356 c 128,-1,77
 139 357 139 357 134 356 c 0,78,79
 129 358 129 358 124.5 358 c 128,-1,80
 120 358 120 358 115 360 c 1,81,82
 125 328 125 328 144 302 c 128,-1,83
 163 276 163 276 188 256 c 0,84,85
 214 237 214 237 245.5 225.5 c 128,-1,86
 277 214 277 214 311 214 c 1,87,88
 284 192 284 192 253.5 176 c 128,-1,89
 223 160 223 160 191 147 c 0,90,91
 158 137 158 137 122.5 130 c 128,-1,92
 87 123 87 123 50 124 c 0,93,94
 44 123 44 123 37.5 124 c 128,-1,95
 31 125 31 125 25 124 c 0,96,97
 19 125 19 125 12.5 125.5 c 128,-1,98
 6 126 6 126 0 127 c 1,99,100
 35 104 35 104 73 87 c 128,-1,101
 111 70 111 70 151 57 c 0,102,103
 192 46 192 46 235 39 c 128,-1,104
 278 32 278 32 322 33 c 0,105,106
 467 32 467 32 578.5 87 c 128,-1,107
 690 142 690 142 766 227 c 0,108,109
 842 314 842 314 881 420 c 128,-1,110
 920 526 920 526 920 631 c 0,111,112
 920 636 920 636 919.5 643.5 c 128,-1,113
 919 651 919 651 919 657 c 1,114,115
 935 669 935 669 949 681 c 128,-1,116
 963 693 963 693 976 708 c 0,117,118
 990 720 990 720 1001.5 735.5 c 128,-1,119
 1013 751 1013 751 1024 766 c 1,120,-1
 1024 766 l 1,0,1
EndSplineSet
EndChar

StartChar: uniE60B
Encoding: 58891 58891 15
Width: 1024
Flags: W
LayerCount: 2
Back
Fore
SplineSet
853 960 m 1,0,-1
 170 960 l 2,1,2
 135 960 135 960 103.5 946.5 c 128,-1,3
 72 933 72 933 50 910 c 0,4,5
 26 887 26 887 13 856 c 128,-1,6
 0 825 0 825 -1 789 c 2,7,-1
 0 107 l 2,8,9
 -1 71 -1 71 13 40 c 128,-1,10
 27 9 27 9 49 -14 c 0,11,12
 73 -37 73 -37 103.5 -50.5 c 128,-1,13
 134 -64 134 -64 171 -64 c 2,14,-1
 852 -64 l 2,15,16
 889 -64 889 -64 919.5 -50.5 c 128,-1,17
 950 -37 950 -37 974 -14 c 0,18,19
 996 9 996 9 1010 40 c 128,-1,20
 1024 71 1024 71 1023 107 c 2,21,-1
 1024 789 l 2,22,23
 1023 825 1023 825 1010 856 c 128,-1,24
 997 887 997 887 973 910 c 0,25,26
 951 933 951 933 919.5 946.5 c 128,-1,27
 888 960 888 960 853 960 c 1,28,-1
 853 960 l 1,0,-1
870 448 m 1,29,-1
 704 448 l 1,30,-1
 703 0 l 1,31,-1
 512 0 l 1,32,-1
 511 448 l 1,33,-1
 419 448 l 1,34,-1
 418 595 l 1,35,-1
 512 595 l 1,36,-1
 511 690 l 2,37,38
 512 738 512 738 522.5 776.5 c 128,-1,39
 533 815 533 815 559 841 c 0,40,41
 583 868 583 868 623 882 c 128,-1,42
 663 896 663 896 719 896 c 2,43,-1
 895 896 l 1,44,-1
 894 737 l 1,45,-1
 752 737 l 2,46,47
 735 737 735 737 726 733 c 128,-1,48
 717 729 717 729 711 721 c 0,49,50
 707 713 707 713 705 701 c 128,-1,51
 703 689 703 689 704 674 c 2,52,-1
 703 595 l 1,53,-1
 896 595 l 1,54,-1
 870 448 l 1,55,-1
 870 448 l 1,29,-1
EndSplineSet
EndChar

StartChar: uniE60C
Encoding: 58892 58892 16
Width: 1024
Flags: W
LayerCount: 2
Back
Fore
SplineSet
576 -64 m 1,0,-1
 384 -64 l 1,1,-1
 384 448 l 1,2,-1
 256 448 l 1,3,-1
 256 624 l 1,4,-1
 384 625 l 1,5,-1
 384 728 l 2,6,7
 384 782 384 782 392.5 825 c 128,-1,8
 401 868 401 868 425 898 c 0,9,10
 448 928 448 928 488.5 944 c 128,-1,11
 529 960 529 960 592 960 c 2,12,-1
 734 960 l 1,13,-1
 734 784 l 1,14,-1
 645 784 l 2,15,16
 621 784 621 784 607 779 c 128,-1,17
 593 774 593 774 586 765 c 256,18,19
 579 756 579 756 577.5 743 c 128,-1,20
 576 730 576 730 576 713 c 2,21,-1
 576 625 l 1,22,-1
 735 625 l 1,23,-1
 716 448 l 1,24,-1
 576 448 l 1,25,-1
 576 -64 l 1,26,-1
 576 -64 l 1,0,-1
EndSplineSet
EndChar

StartChar: uniE60D
Encoding: 58893 58893 17
Width: 1024
Flags: W
LayerCount: 2
Back
Fore
SplineSet
559 896 m 1,0,1
 559 896 559 896 450 896 c 128,-1,2
 341 896 341 896 291 896 c 0,3,4
 246 896 246 896 204 880 c 128,-1,5
 162 864 162 864 129 837 c 0,6,7
 97 810 97 810 77.5 774.5 c 128,-1,8
 58 739 58 739 58 700 c 0,9,10
 58 659 58 659 72.5 623.5 c 128,-1,11
 87 588 87 588 114 562 c 0,12,13
 141 535 141 535 178.5 520 c 128,-1,14
 216 505 216 505 262 505 c 0,15,16
 268 505 268 505 274.5 505 c 128,-1,17
 281 505 281 505 287 506 c 1,18,19
 284 500 284 500 281.5 494 c 128,-1,20
 279 488 279 488 277 482 c 0,21,22
 275 475 275 475 274 468.5 c 128,-1,23
 273 462 273 462 273 456 c 0,24,25
 273 444 273 444 276 434 c 128,-1,26
 279 424 279 424 284 415 c 256,27,28
 289 406 289 406 295.5 397.5 c 128,-1,29
 302 389 302 389 310 382 c 1,30,31
 304 382 304 382 298.5 381.5 c 128,-1,32
 293 381 293 381 287 381 c 256,33,34
 281 381 281 381 275 381 c 128,-1,35
 269 381 269 381 263 381 c 0,36,37
 208 381 208 381 159.5 364.5 c 128,-1,38
 111 348 111 348 76 321 c 0,39,40
 40 295 40 295 20 260 c 128,-1,41
 0 225 0 225 0 188 c 0,42,43
 0 152 0 152 22 123 c 128,-1,44
 44 94 44 94 81 73 c 0,45,46
 119 53 119 53 169 42 c 128,-1,47
 219 31 219 31 274 31 c 0,48,49
 338 31 338 31 387 47.5 c 128,-1,50
 436 64 436 64 470 91 c 0,51,52
 503 118 503 118 520.5 153 c 128,-1,53
 538 188 538 188 538 224 c 0,54,55
 538 253 538 253 533 277 c 128,-1,56
 528 301 528 301 517 321 c 0,57,58
 506 342 506 342 488.5 360.5 c 128,-1,59
 471 379 471 379 444 398 c 0,60,61
 435 404 435 404 423 414.5 c 128,-1,62
 411 425 411 425 400 437 c 256,63,64
 389 449 389 449 381 460.5 c 128,-1,65
 373 472 373 472 373 481 c 0,66,67
 373 492 373 492 375 500.5 c 128,-1,68
 377 509 377 509 383 518 c 0,69,70
 389 526 389 526 399 535.5 c 128,-1,71
 409 545 409 545 425 558 c 256,72,73
 441 571 441 571 455 586.5 c 128,-1,74
 469 602 469 602 479 620 c 0,75,76
 489 637 489 637 495 657 c 128,-1,77
 501 677 501 677 501 698 c 0,78,79
 501 723 501 723 495 747.5 c 128,-1,80
 489 772 489 772 478 792 c 0,81,82
 468 813 468 813 451.5 829 c 128,-1,83
 435 845 435 845 414 853 c 1,84,-1
 499 853 l 1,85,-1
 559 896 l 1,86,-1
 559 896 l 1,0,1
465 241 m 1,87,88
 467 234 467 234 468 227 c 128,-1,89
 469 220 469 220 469 213 c 0,90,91
 469 184 469 184 458.5 158.5 c 128,-1,92
 448 133 448 133 425 114 c 256,93,94
 402 95 402 95 365 84.5 c 128,-1,95
 328 74 328 74 274 74 c 0,96,97
 235 74 235 74 202.5 85 c 128,-1,98
 170 96 170 96 147 116 c 0,99,100
 123 135 123 135 110 161.5 c 128,-1,101
 97 188 97 188 97 217 c 256,102,103
 97 246 97 246 113 271.5 c 128,-1,104
 129 297 129 297 156 316 c 256,105,106
 183 335 183 335 218 346 c 128,-1,107
 253 357 253 357 292 356 c 0,108,109
 301 356 301 356 309.5 355.5 c 128,-1,110
 318 355 318 355 326 353 c 0,111,112
 335 352 335 352 343 350 c 128,-1,113
 351 348 351 348 358 346 c 0,114,115
 379 331 379 331 397 319 c 128,-1,116
 415 307 415 307 429 295 c 0,117,118
 442 283 442 283 451.5 270 c 128,-1,119
 461 257 461 257 465 241 c 1,120,-1
 465 241 l 1,87,88
301 532 m 1,121,122
 275 533 275 533 250.5 546.5 c 128,-1,123
 226 560 226 560 206 583 c 256,124,125
 186 606 186 606 172.5 636 c 128,-1,126
 159 666 159 666 154 700 c 0,127,128
 150 734 150 734 156 763.5 c 128,-1,129
 162 793 162 793 176 814 c 256,130,131
 190 835 190 835 211 847 c 128,-1,132
 232 859 232 859 258 858 c 256,133,134
 284 857 284 857 308 844 c 128,-1,135
 332 831 332 831 352 809 c 0,136,137
 372 786 372 786 386 756.5 c 128,-1,138
 400 727 400 727 404 693 c 0,139,140
 409 659 409 659 403 629 c 128,-1,141
 397 599 397 599 383 578 c 0,142,143
 369 556 369 556 348 543.5 c 128,-1,144
 327 531 327 531 301 532 c 1,145,-1
 301 532 l 1,121,122
832 704 m 1,146,-1
 832 896 l 1,147,-1
 768 896 l 1,148,-1
 768 704 l 1,149,-1
 576 704 l 1,150,-1
 576 640 l 1,151,-1
 768 640 l 1,152,-1
 768 448 l 1,153,-1
 832 448 l 1,154,-1
 832 640 l 1,155,-1
 1024 640 l 1,156,-1
 1024 704 l 1,157,-1
 832 704 l 1,146,-1
EndSplineSet
EndChar

StartChar: uniE60E
Encoding: 58894 58894 18
Width: 1024
Flags: W
LayerCount: 2
Back
Fore
SplineSet
512 960 m 1,0,1
 618 960 618 960 711.5 920 c 128,-1,2
 805 880 805 880 874 810 c 0,3,4
 944 741 944 741 984 647.5 c 128,-1,5
 1024 554 1024 554 1024 448 c 0,6,7
 1024 350 1024 350 989.5 263 c 128,-1,8
 955 176 955 176 895 108 c 0,9,10
 834 40 834 40 752.5 -4 c 128,-1,11
 671 -48 671 -48 576 -60 c 1,12,-1
 576 320 l 1,13,-1
 752 320 l 1,14,-1
 768 448 l 1,15,-1
 576 448 l 1,16,-1
 576 512 l 2,17,18
 576 525 576 525 581 537 c 128,-1,19
 586 549 586 549 595 557 c 0,20,21
 603 566 603 566 615 571 c 128,-1,22
 627 576 627 576 640 576 c 2,23,-1
 768 576 l 1,24,-1
 768 704 l 1,25,-1
 640 704 l 2,26,27
 600 704 600 704 565 689 c 128,-1,28
 530 674 530 674 504 648 c 256,29,30
 478 622 478 622 463 587 c 128,-1,31
 448 552 448 552 448 512 c 2,32,-1
 448 448 l 1,33,-1
 352 448 l 1,34,-1
 352 320 l 1,35,-1
 448 320 l 1,36,-1
 448 -60 l 1,37,38
 353 -48 353 -48 271.5 -4 c 128,-1,39
 190 40 190 40 129 108 c 0,40,41
 69 176 69 176 34.5 263 c 128,-1,42
 0 350 0 350 0 448 c 0,43,44
 0 554 0 554 40 647.5 c 128,-1,45
 80 741 80 741 150 810 c 0,46,47
 219 880 219 880 312.5 920 c 128,-1,48
 406 960 406 960 512 960 c 1,49,-1
 512 960 l 1,0,1
EndSplineSet
EndChar

StartChar: uniE60F
Encoding: 58895 58895 19
Width: 1024
Flags: W
LayerCount: 2
Back
Fore
SplineSet
512 960 m 5,0,1
 406 960 406 960 312.5 920 c 132,-1,2
 219 880 219 880 150 810 c 4,3,4
 80 741 80 741 40 647.5 c 132,-1,5
 0 554 0 554 0 448 c 260,6,7
 0 342 0 342 40 248.5 c 132,-1,8
 80 155 80 155 150 86 c 4,9,10
 219 16 219 16 312.5 -24 c 132,-1,11
 406 -64 406 -64 512 -64 c 260,12,13
 618 -64 618 -64 711.5 -24 c 132,-1,14
 805 16 805 16 874 86 c 4,15,16
 944 155 944 155 984 248.5 c 132,-1,17
 1024 342 1024 342 1024 448 c 260,18,19
 1024 554 1024 554 984 647.5 c 132,-1,20
 944 741 944 741 874 810 c 4,21,22
 805 880 805 880 711.5 920 c 132,-1,23
 618 960 618 960 512 960 c 5,24,-1
 512 960 l 5,0,1
806 599 m 1,25,26
 806 594 806 594 806.5 589 c 128,-1,27
 807 584 807 584 807 579 c 0,28,29
 807 504 807 504 778.5 427 c 128,-1,30
 750 350 750 350 695 288 c 0,31,32
 641 226 641 226 560 186.5 c 128,-1,33
 479 147 479 147 375 147 c 0,34,35
 343 147 343 147 312 152 c 128,-1,36
 281 157 281 157 251 165 c 0,37,38
 222 174 222 174 194.5 186.5 c 128,-1,39
 167 199 167 199 142 216 c 1,40,41
 146 215 146 215 150.5 214.5 c 128,-1,42
 155 214 155 214 160 214 c 0,43,44
 164 214 164 214 169 213.5 c 128,-1,45
 174 213 174 213 178 213 c 0,46,47
 205 213 205 213 230.5 217.5 c 128,-1,48
 256 222 256 222 280 231 c 0,49,50
 303 239 303 239 325 251 c 128,-1,51
 347 263 347 263 367 278 c 1,52,53
 342 279 342 279 319.5 287 c 128,-1,54
 297 295 297 295 278 309 c 0,55,56
 260 323 260 323 246 342 c 128,-1,57
 232 361 232 361 225 384 c 1,58,59
 232 382 232 382 239 381.5 c 128,-1,60
 246 381 246 381 254 381 c 0,61,62
 259 381 259 381 264 381.5 c 128,-1,63
 269 382 269 382 274 382 c 0,64,65
 279 383 279 383 284 384 c 128,-1,66
 289 385 289 385 294 386 c 1,67,68
 267 392 267 392 245 405.5 c 128,-1,69
 223 419 223 419 207 439 c 0,70,71
 190 458 190 458 181 483 c 128,-1,72
 172 508 172 508 172 535 c 0,73,74
 172 536 172 536 172 536.5 c 128,-1,75
 172 537 172 537 172 537 c 1,76,77
 179 533 179 533 187.5 529.5 c 128,-1,78
 196 526 196 526 204 524 c 0,79,80
 213 521 213 521 222 520 c 128,-1,81
 231 519 231 519 240 518 c 1,82,83
 225 528 225 528 212.5 542 c 128,-1,84
 200 556 200 556 191 572 c 0,85,86
 183 588 183 588 178 606.5 c 128,-1,87
 173 625 173 625 173 645 c 0,88,89
 173 655 173 655 174.5 665 c 128,-1,90
 176 675 176 675 178 685 c 0,91,92
 181 694 181 694 185 703.5 c 128,-1,93
 189 713 189 713 194 721 c 1,94,95
 222 686 222 686 256.5 658 c 128,-1,96
 291 630 291 630 331 610 c 0,97,98
 371 589 371 589 415 577 c 128,-1,99
 459 565 459 565 506 562 c 1,100,101
 505 566 505 566 504.5 570.5 c 128,-1,102
 504 575 504 575 504 579 c 0,103,104
 503 584 503 584 503 588 c 128,-1,105
 503 592 503 592 503 597 c 0,106,107
 503 628 503 628 514.5 656 c 128,-1,108
 526 684 526 684 547 704 c 0,109,110
 568 725 568 725 595.5 737 c 128,-1,111
 623 749 623 749 654 749 c 0,112,113
 671 749 671 749 686.5 745.5 c 128,-1,114
 702 742 702 742 716 736 c 256,115,116
 730 730 730 730 742.5 721 c 128,-1,117
 755 712 755 712 765 701 c 1,118,119
 778 703 778 703 790.5 707 c 128,-1,120
 803 711 803 711 815 715 c 0,121,122
 827 720 827 720 839 725.5 c 128,-1,123
 851 731 851 731 862 738 c 1,124,125
 857 724 857 724 850.5 712 c 128,-1,126
 844 700 844 700 836 689 c 0,127,128
 827 679 827 679 817 670 c 128,-1,129
 807 661 807 661 795 654 c 1,130,131
 806 655 806 655 817.5 657 c 128,-1,132
 829 659 829 659 840 662 c 256,133,134
 851 665 851 665 861.5 669 c 128,-1,135
 872 673 872 673 882 678 c 1,136,137
 874 666 874 666 865.5 655.5 c 128,-1,138
 857 645 857 645 848 635 c 0,139,140
 838 625 838 625 827.5 616 c 128,-1,141
 817 607 817 607 806 599 c 1,142,-1
 806 599 l 1,25,26
EndSplineSet
EndChar

StartChar: uniE610
Encoding: 58896 58896 20
Width: 1024
Flags: W
LayerCount: 2
Back
Fore
SplineSet
136 209 m 1,0,1
 108 209 108 209 83 198.5 c 128,-1,2
 58 188 58 188 40 169 c 0,3,4
 21 151 21 151 10.5 126 c 128,-1,5
 0 101 0 101 0 73 c 256,6,7
 0 45 0 45 10.5 20 c 128,-1,8
 21 -5 21 -5 40 -23 c 0,9,10
 58 -42 58 -42 83 -52.5 c 128,-1,11
 108 -63 108 -63 136 -63 c 0,12,13
 165 -63 165 -63 189.5 -52.5 c 128,-1,14
 214 -42 214 -42 233 -23 c 0,15,16
 251 -5 251 -5 262 20 c 128,-1,17
 273 45 273 45 273 73 c 256,18,19
 273 101 273 101 262 126 c 128,-1,20
 251 151 251 151 233 169 c 0,21,22
 214 188 214 188 189.5 198.5 c 128,-1,23
 165 209 165 209 136 209 c 1,24,-1
 136 209 l 1,0,1
0 612 m 1,25,-1
 0 416 l 1,26,27
 48 416 48 416 94 406.5 c 128,-1,28
 140 397 140 397 183 380 c 0,29,30
 226 362 226 362 265.5 335.5 c 128,-1,31
 305 309 305 309 339 275 c 256,32,33
 373 241 373 241 399 202 c 128,-1,34
 425 163 425 163 443 120 c 0,35,36
 460 77 460 77 469.5 30.5 c 128,-1,37
 479 -16 479 -16 479 -64 c 1,38,-1
 676 -64 l 1,39,40
 676 76 676 76 623 199 c 128,-1,41
 570 322 570 322 478 414 c 256,42,43
 386 506 386 506 263 559 c 128,-1,44
 140 612 140 612 0 612 c 1,45,-1
 0 612 l 1,25,-1
0 960 m 1,46,-1
 0 764 l 1,47,48
 171 764 171 764 321.5 698.5 c 128,-1,49
 472 633 472 633 585 521 c 0,50,51
 697 409 697 409 762 258 c 128,-1,52
 827 107 827 107 827 -64 c 1,53,-1
 1024 -64 l 1,54,55
 1024 148 1024 148 943.5 334.5 c 128,-1,56
 863 521 863 521 724 660 c 256,57,58
 585 799 585 799 398.5 879.5 c 128,-1,59
 212 960 212 960 0 960 c 1,60,-1
 0 960 l 1,46,-1
EndSplineSet
EndChar

StartChar: uniE611
Encoding: 58897 58897 21
Width: 1024
Flags: W
LayerCount: 2
Back
Fore
SplineSet
853 960 m 1,0,-1
 170 960 l 2,1,2
 135 960 135 960 103.5 946.5 c 128,-1,3
 72 933 72 933 50 910 c 0,4,5
 26 887 26 887 13 856 c 128,-1,6
 0 825 0 825 -1 789 c 2,7,-1
 0 107 l 2,8,9
 -1 71 -1 71 13 40 c 128,-1,10
 27 9 27 9 49 -14 c 0,11,12
 73 -37 73 -37 103.5 -50.5 c 128,-1,13
 134 -64 134 -64 171 -64 c 2,14,-1
 852 -64 l 2,15,16
 889 -64 889 -64 919.5 -50.5 c 128,-1,17
 950 -37 950 -37 974 -14 c 0,18,19
 996 9 996 9 1010 40 c 128,-1,20
 1024 71 1024 71 1023 107 c 2,21,-1
 1024 789 l 2,22,23
 1023 825 1023 825 1010 856 c 128,-1,24
 997 887 997 887 973 910 c 0,25,26
 951 933 951 933 919.5 946.5 c 128,-1,27
 888 960 888 960 853 960 c 1,28,-1
 853 960 l 1,0,-1
278 129 m 1,29,30
 261 129 261 129 244.5 135.5 c 128,-1,31
 228 142 228 142 217 154 c 0,32,33
 205 166 205 166 198.5 181.5 c 128,-1,34
 192 197 192 197 191 215 c 0,35,36
 192 233 192 233 198.5 249 c 128,-1,37
 205 265 205 265 217 277 c 0,38,39
 228 288 228 288 244.5 295 c 128,-1,40
 261 302 261 302 278 302 c 0,41,42
 297 302 297 302 312.5 295 c 128,-1,43
 328 288 328 288 341 277 c 0,44,45
 351 265 351 265 358.5 249 c 128,-1,46
 366 233 366 233 365 215 c 0,47,48
 366 197 366 197 358.5 181.5 c 128,-1,49
 351 166 351 166 341 154 c 0,50,51
 328 142 328 142 312.5 135.5 c 128,-1,52
 297 129 297 129 278 129 c 1,53,-1
 278 129 l 1,29,30
497 128 m 1,54,55
 496 159 496 159 491 188.5 c 128,-1,56
 486 218 486 218 473 245 c 0,57,58
 463 273 463 273 446 298 c 128,-1,59
 429 323 429 323 408 344 c 0,60,61
 385 366 385 366 360.5 383 c 128,-1,62
 336 400 336 400 308 411 c 0,63,64
 282 422 282 422 252 428 c 128,-1,65
 222 434 222 434 192 434 c 1,66,-1
 191 559 l 1,67,68
 281 559 281 559 359 525 c 128,-1,69
 437 491 437 491 497 433 c 0,70,71
 554 374 554 374 588.5 295.5 c 128,-1,72
 623 217 623 217 622 128 c 1,73,-1
 497 128 l 1,74,-1
 497 128 l 1,54,55
719 128 m 1,75,76
 720 237 720 237 678 333 c 128,-1,77
 636 429 636 429 565 501 c 0,78,79
 492 573 492 573 396.5 614.5 c 128,-1,80
 301 656 301 656 191 656 c 1,81,-1
 192 781 l 1,82,83
 326 781 326 781 445.5 729.5 c 128,-1,84
 565 678 565 678 653 590 c 0,85,86
 742 501 742 501 793 382 c 128,-1,87
 844 263 844 263 845 128 c 1,88,-1
 719 128 l 1,89,-1
 719 128 l 1,75,76
EndSplineSet
EndChar

StartChar: uniE612
Encoding: 58898 58898 22
Width: 1024
Flags: W
LayerCount: 2
Back
Fore
SplineSet
512 960 m 1,0,1
 406 960 406 960 312.5 920 c 128,-1,2
 219 880 219 880 150 810 c 0,3,4
 80 741 80 741 40 647.5 c 128,-1,5
 0 554 0 554 0 448 c 256,6,7
 0 342 0 342 40 248.5 c 128,-1,8
 80 155 80 155 150 86 c 0,9,10
 219 16 219 16 312.5 -24 c 128,-1,11
 406 -64 406 -64 512 -64 c 256,12,13
 618 -64 618 -64 711.5 -24 c 128,-1,14
 805 16 805 16 874 86 c 0,15,16
 944 155 944 155 984 248.5 c 128,-1,17
 1024 342 1024 342 1024 448 c 256,18,19
 1024 554 1024 554 984 647.5 c 128,-1,20
 944 741 944 741 874 810 c 0,21,22
 805 880 805 880 711.5 920 c 128,-1,23
 618 960 618 960 512 960 c 1,24,-1
 512 960 l 1,0,1
320 192 m 1,25,26
 307 192 307 192 295 197 c 128,-1,27
 283 202 283 202 275 211 c 0,28,29
 266 219 266 219 261 231 c 128,-1,30
 256 243 256 243 256 256 c 256,31,32
 256 269 256 269 261 281 c 128,-1,33
 266 293 266 293 275 301 c 0,34,35
 283 310 283 310 295 315 c 128,-1,36
 307 320 307 320 320 320 c 256,37,38
 333 320 333 320 345 315 c 128,-1,39
 357 310 357 310 365 301 c 0,40,41
 374 293 374 293 379 281 c 128,-1,42
 384 269 384 269 384 256 c 256,43,44
 384 243 384 243 379 231 c 128,-1,45
 374 219 374 219 365 211 c 0,46,47
 357 202 357 202 345 197 c 128,-1,48
 333 192 333 192 320 192 c 1,49,-1
 320 192 l 1,25,26
496 192 m 1,50,51
 496 242 496 242 477 285.5 c 128,-1,52
 458 329 458 329 426 362 c 0,53,54
 393 394 393 394 349.5 413 c 128,-1,55
 306 432 306 432 256 432 c 1,56,-1
 256 528 l 1,57,58
 325 528 325 528 386.5 501.5 c 128,-1,59
 448 475 448 475 493 429 c 0,60,61
 539 384 539 384 565.5 322.5 c 128,-1,62
 592 261 592 261 592 192 c 1,63,-1
 496 192 l 1,64,-1
 496 192 l 1,50,51
688 192 m 1,65,66
 688 235 688 235 679.5 277 c 128,-1,67
 671 319 671 319 655 357 c 0,68,69
 639 396 639 396 615.5 431.5 c 128,-1,70
 592 467 592 467 561 497 c 0,71,72
 531 528 531 528 495.5 551.5 c 128,-1,73
 460 575 460 575 421 591 c 0,74,75
 383 607 383 607 341 615.5 c 128,-1,76
 299 624 299 624 256 624 c 1,77,-1
 256 720 l 1,78,79
 309 720 309 720 360 710 c 128,-1,80
 411 700 411 700 458 680 c 0,81,82
 506 660 506 660 549 631.5 c 128,-1,83
 592 603 592 603 629 565 c 0,84,85
 667 528 667 528 695.5 485 c 128,-1,86
 724 442 724 442 744 394 c 0,87,88
 764 347 764 347 774 296 c 128,-1,89
 784 245 784 245 784 192 c 1,90,-1
 688 192 l 1,91,-1
 688 192 l 1,65,66
EndSplineSet
EndChar

StartChar: uniE613
Encoding: 58899 58899 23
Width: 1024
Flags: W
LayerCount: 2
Back
Fore
SplineSet
832 832 m 1,0,-1
 192 832 l 2,1,2
 152 832 152 832 117.5 817 c 128,-1,3
 83 802 83 802 56 776 c 0,4,5
 30 750 30 750 15 715 c 128,-1,6
 0 680 0 680 0 640 c 2,7,-1
 0 256 l 2,8,9
 0 216 0 216 15 181.5 c 128,-1,10
 30 147 30 147 56 120 c 0,11,12
 82 94 82 94 117 79 c 128,-1,13
 152 64 152 64 191 64 c 2,14,-1
 832 64 l 2,15,16
 871 64 871 64 906 79 c 128,-1,17
 941 94 941 94 967 120 c 256,18,19
 993 146 993 146 1008 181 c 128,-1,20
 1023 216 1023 216 1023 255 c 2,21,-1
 1023 640 l 2,22,23
 1023 679 1023 679 1008 714 c 128,-1,24
 993 749 993 749 967 775 c 256,25,26
 941 801 941 801 906 816 c 128,-1,27
 871 831 871 831 831 831 c 1,28,-1
 832 832 l 1,0,-1
959 255 m 1,29,30
 959 242 959 242 956.5 230 c 128,-1,31
 954 218 954 218 949 206 c 0,32,33
 944 195 944 195 937 184.5 c 128,-1,34
 930 174 930 174 921 165 c 256,35,36
 912 156 912 156 901.5 149 c 128,-1,37
 891 142 891 142 880 137 c 0,38,39
 868 132 868 132 856 129.5 c 128,-1,40
 844 127 844 127 831 127 c 2,41,-1
 191 127 l 2,42,43
 178 127 178 127 166 129.5 c 128,-1,44
 154 132 154 132 142 137 c 0,45,46
 131 142 131 142 120.5 149 c 128,-1,47
 110 156 110 156 101 165 c 256,48,49
 92 174 92 174 85 184.5 c 128,-1,50
 78 195 78 195 73 206 c 0,51,52
 68 218 68 218 65.5 230 c 128,-1,53
 63 242 63 242 63 255 c 2,54,-1
 63 639 l 2,55,56
 63 652 63 652 65.5 664 c 128,-1,57
 68 676 68 676 73 688 c 0,58,59
 78 699 78 699 85 709.5 c 128,-1,60
 92 720 92 720 101 729 c 256,61,62
 110 738 110 738 120.5 745 c 128,-1,63
 131 752 131 752 142 757 c 0,64,65
 154 762 154 762 166 764.5 c 128,-1,66
 178 767 178 767 191 767 c 2,67,-1
 831 767 l 2,68,69
 844 767 844 767 856 764.5 c 128,-1,70
 868 762 868 762 880 757 c 0,71,72
 891 752 891 752 901.5 745 c 128,-1,73
 912 738 912 738 921 729 c 256,74,75
 930 720 930 720 937 709.5 c 128,-1,76
 944 699 944 699 949 688 c 0,77,78
 954 676 954 676 956.5 664 c 128,-1,79
 959 652 959 652 959 639 c 2,80,-1
 959 255 l 1,81,-1
 959 255 l 1,29,30
383 191 m 1,82,-1
 703 447 l 1,83,-1
 383 703 l 1,84,-1
 383 191 l 1,82,-1
EndSplineSet
EndChar

StartChar: uniE614
Encoding: 58900 58900 24
Width: 1024
Flags: W
LayerCount: 2
Back
Fore
SplineSet
832 832 m 1,0,-1
 192 832 l 2,1,2
 152 832 152 832 117.5 817 c 128,-1,3
 83 802 83 802 56 776 c 0,4,5
 30 750 30 750 15 715 c 128,-1,6
 0 680 0 680 0 640 c 2,7,-1
 0 256 l 2,8,9
 0 216 0 216 15 181.5 c 128,-1,10
 30 147 30 147 56 120 c 0,11,12
 82 94 82 94 117 79 c 128,-1,13
 152 64 152 64 191 64 c 2,14,-1
 832 64 l 2,15,16
 871 64 871 64 906 79 c 128,-1,17
 941 94 941 94 967 120 c 256,18,19
 993 146 993 146 1008 181 c 128,-1,20
 1023 216 1023 216 1023 255 c 2,21,-1
 1023 640 l 2,22,23
 1023 679 1023 679 1008 714 c 128,-1,24
 993 749 993 749 967 775 c 256,25,26
 941 801 941 801 906 816 c 128,-1,27
 871 831 871 831 831 831 c 1,28,-1
 832 832 l 1,0,-1
383 191 m 1,29,-1
 383 703 l 1,30,-1
 703 447 l 1,31,-1
 383 191 l 1,32,-1
 383 191 l 1,29,-1
EndSplineSet
EndChar

StartChar: uniE615
Encoding: 58901 58901 25
Width: 1024
Flags: W
LayerCount: 2
Back
Fore
SplineSet
854 960 m 1,0,-1
 170 960 l 2,1,2
 134 960 134 960 103.5 946.5 c 128,-1,3
 73 933 73 933 49 909 c 0,4,5
 27 886 27 886 13.5 854.5 c 128,-1,6
 0 823 0 823 1 788 c 2,7,-1
 0 108 l 2,8,9
 1 72 1 72 13.5 40.5 c 128,-1,10
 26 9 26 9 50 -14 c 0,11,12
 72 -37 72 -37 103.5 -50.5 c 128,-1,13
 135 -64 135 -64 169 -64 c 2,14,-1
 855 -64 l 2,15,16
 889 -64 889 -64 920.5 -50.5 c 128,-1,17
 952 -37 952 -37 974 -14 c 0,18,19
 998 9 998 9 1011 40.5 c 128,-1,20
 1024 72 1024 72 1025 108 c 2,21,-1
 1024 788 l 2,22,23
 1025 823 1025 823 1011 854.5 c 128,-1,24
 997 886 997 886 975 909 c 0,25,26
 951 933 951 933 920.5 946.5 c 128,-1,27
 890 960 890 960 854 960 c 1,28,-1
 854 960 l 1,0,-1
705 928 m 1,29,-1
 704 768 l 1,30,-1
 545 768 l 1,31,-1
 544 928 l 1,32,-1
 705 928 l 1,33,-1
 705 928 l 1,29,-1
480 928 m 1,34,-1
 481 768 l 1,35,-1
 320 768 l 1,36,-1
 321 928 l 1,37,-1
 480 928 l 1,38,-1
 480 928 l 1,34,-1
33 768 m 1,39,-1
 32 788 l 2,40,41
 33 817 33 817 43.5 842.5 c 128,-1,42
 54 868 54 868 73 887 c 0,43,44
 91 906 91 906 116.5 917 c 128,-1,45
 142 928 142 928 169 928 c 2,46,-1
 257 928 l 1,47,-1
 256 768 l 1,48,-1
 33 768 l 1,49,-1
 33 768 l 1,39,-1
768 320 m 1,50,-1
 577 320 l 1,51,-1
 576 128 l 1,52,-1
 449 128 l 1,53,-1
 448 320 l 1,54,-1
 257 320 l 1,55,-1
 256 448 l 1,56,-1
 449 448 l 1,57,-1
 448 640 l 1,58,-1
 577 640 l 1,59,-1
 576 448 l 1,60,-1
 769 448 l 1,61,-1
 768 320 l 1,62,-1
 768 320 l 1,50,-1
993 768 m 1,63,-1
 768 768 l 1,64,-1
 769 928 l 1,65,-1
 854 928 l 2,66,67
 883 928 883 928 908 917 c 128,-1,68
 933 906 933 906 952 887 c 0,69,70
 970 868 970 868 981.5 842.5 c 128,-1,71
 993 817 993 817 992 788 c 2,72,-1
 993 768 l 1,73,-1
 993 768 l 1,63,-1
EndSplineSet
EndChar

StartChar: uniE616
Encoding: 58902 58902 26
Width: 1024
Flags: W
LayerCount: 2
Back
Fore
SplineSet
790 896 m 1,0,1
 790 896 790 896 681 896 c 128,-1,2
 572 896 572 896 522 896 c 0,3,4
 477 896 477 896 434.5 880 c 128,-1,5
 392 864 392 864 360 837 c 256,6,7
 328 810 328 810 308 774.5 c 128,-1,8
 288 739 288 739 288 700 c 0,9,10
 288 659 288 659 303 623.5 c 128,-1,11
 318 588 318 588 345 562 c 0,12,13
 371 535 371 535 409 520 c 128,-1,14
 447 505 447 505 493 505 c 0,15,16
 499 505 499 505 505 505 c 128,-1,17
 511 505 511 505 517 506 c 1,18,19
 514 500 514 500 511.5 494 c 128,-1,20
 509 488 509 488 508 482 c 0,21,22
 506 475 506 475 505 468.5 c 128,-1,23
 504 462 504 462 504 456 c 0,24,25
 504 444 504 444 506.5 434 c 128,-1,26
 509 424 509 424 514 415 c 256,27,28
 519 406 519 406 526 397.5 c 128,-1,29
 533 389 533 389 540 382 c 1,30,31
 534 382 534 382 528.5 381.5 c 128,-1,32
 523 381 523 381 517 381 c 0,33,34
 512 381 512 381 506 381 c 128,-1,35
 500 381 500 381 494 381 c 0,36,37
 438 381 438 381 390 364.5 c 128,-1,38
 342 348 342 348 306 321 c 0,39,40
 271 295 271 295 250.5 260 c 128,-1,41
 230 225 230 225 230 188 c 0,42,43
 230 152 230 152 252 123 c 128,-1,44
 274 94 274 94 312 73 c 0,45,46
 349 53 349 53 399 42 c 128,-1,47
 449 31 449 31 505 31 c 0,48,49
 568 31 568 31 617.5 47.5 c 128,-1,50
 667 64 667 64 700 91 c 0,51,52
 734 118 734 118 751 153 c 128,-1,53
 768 188 768 188 768 224 c 0,54,55
 768 253 768 253 763.5 277 c 128,-1,56
 759 301 759 301 748 321 c 0,57,58
 737 342 737 342 719 360.5 c 128,-1,59
 701 379 701 379 674 398 c 0,60,61
 665 404 665 404 653 414.5 c 128,-1,62
 641 425 641 425 630 437 c 256,63,64
 619 449 619 449 611.5 460.5 c 128,-1,65
 604 472 604 472 604 481 c 0,66,67
 604 492 604 492 606 500.5 c 128,-1,68
 608 509 608 509 613 518 c 0,69,70
 619 526 619 526 629 535.5 c 128,-1,71
 639 545 639 545 655 558 c 0,72,73
 672 571 672 571 686 586.5 c 128,-1,74
 700 602 700 602 710 620 c 0,75,76
 720 637 720 637 725.5 657 c 128,-1,77
 731 677 731 677 731 698 c 0,78,79
 731 723 731 723 725.5 747.5 c 128,-1,80
 720 772 720 772 709 792 c 0,81,82
 698 813 698 813 682 829 c 128,-1,83
 666 845 666 845 645 853 c 1,84,-1
 730 853 l 1,85,-1
 790 896 l 1,86,-1
 790 896 l 1,0,1
696 241 m 1,87,88
 698 234 698 234 698.5 227 c 128,-1,89
 699 220 699 220 699 213 c 0,90,91
 699 184 699 184 689 158.5 c 128,-1,92
 679 133 679 133 656 114 c 256,93,94
 633 95 633 95 595.5 84.5 c 128,-1,95
 558 74 558 74 504 74 c 0,96,97
 466 74 466 74 433.5 85 c 128,-1,98
 401 96 401 96 377 116 c 0,99,100
 354 135 354 135 340.5 161.5 c 128,-1,101
 327 188 327 188 327 217 c 256,102,103
 327 246 327 246 343 271.5 c 128,-1,104
 359 297 359 297 386 316 c 256,105,106
 413 335 413 335 448.5 346 c 128,-1,107
 484 357 484 357 522 356 c 0,108,109
 531 356 531 356 539.5 355.5 c 128,-1,110
 548 355 548 355 557 353 c 0,111,112
 565 352 565 352 573 350 c 128,-1,113
 581 348 581 348 589 346 c 0,114,115
 610 331 610 331 627.5 319 c 128,-1,116
 645 307 645 307 659 295 c 256,117,118
 673 283 673 283 682.5 270 c 128,-1,119
 692 257 692 257 696 241 c 1,120,-1
 696 241 l 1,87,88
531 532 m 1,121,122
 505 533 505 533 480.5 546.5 c 128,-1,123
 456 560 456 560 437 583 c 0,124,125
 417 606 417 606 403 636 c 128,-1,126
 389 666 389 666 385 700 c 0,127,128
 380 734 380 734 386 763.5 c 128,-1,129
 392 793 392 793 406 814 c 256,130,131
 420 835 420 835 441 847 c 128,-1,132
 462 859 462 859 488 858 c 256,133,134
 514 857 514 857 538.5 844 c 128,-1,135
 563 831 563 831 583 809 c 0,136,137
 603 786 603 786 616.5 756.5 c 128,-1,138
 630 727 630 727 635 693 c 0,139,140
 639 659 639 659 633 629 c 128,-1,141
 627 599 627 599 613 578 c 0,142,143
 599 556 599 556 578 543.5 c 128,-1,144
 557 531 557 531 531 532 c 1,145,-1
 531 532 l 1,121,122
EndSplineSet
EndChar

StartChar: uniE617
Encoding: 58903 58903 27
Width: 1024
Flags: W
LayerCount: 2
Back
Fore
SplineSet
437 142 m 1,0,1
 437 114 437 114 427.5 89.5 c 128,-1,2
 418 65 418 65 397 46 c 256,3,4
 376 27 376 27 342.5 15.5 c 128,-1,5
 309 4 309 4 259 3 c 1,6,7
 230 19 230 19 204 39 c 128,-1,8
 178 59 178 59 154 82 c 256,9,10
 130 105 130 105 109.5 131 c 128,-1,11
 89 157 89 157 72 186 c 1,12,13
 81 207 81 207 99 226 c 128,-1,14
 117 245 117 245 141 259 c 256,15,16
 165 273 165 273 194 280.5 c 128,-1,17
 223 288 223 288 255 288 c 0,18,19
 264 288 264 288 272.5 287 c 128,-1,20
 281 286 281 286 289 285 c 0,21,22
 298 283 298 283 306 281 c 128,-1,23
 314 279 314 279 321 277 c 0,24,25
 342 262 342 262 361 250 c 128,-1,26
 380 238 380 238 394 225 c 0,27,28
 409 213 409 213 419 199.5 c 128,-1,29
 429 186 429 186 434 169 c 0,30,31
 435 163 435 163 436 156 c 128,-1,32
 437 149 437 149 437 142 c 1,33,-1
 437 142 l 1,0,1
512 960 m 1,34,35
 457 960 457 960 404.5 948.5 c 128,-1,36
 352 937 352 937 304 916 c 0,37,38
 257 895 257 895 214.5 865 c 128,-1,39
 172 835 172 835 137 797 c 1,40,41
 151 805 151 805 166 811 c 128,-1,42
 181 817 181 817 197 821 c 256,43,44
 213 825 213 825 230 827.5 c 128,-1,45
 247 830 247 830 264 830 c 0,46,47
 315 830 315 830 418 830 c 128,-1,48
 521 830 521 830 521 830 c 1,49,-1
 463 769 l 1,50,-1
 396 769 l 1,51,52
 414 759 414 759 427.5 744 c 128,-1,53
 441 729 441 729 450 710 c 256,54,55
 459 691 459 691 464 669.5 c 128,-1,56
 469 648 469 648 469 624 c 0,57,58
 469 603 469 603 463.5 584 c 128,-1,59
 458 565 458 565 448 548 c 0,60,61
 438 530 438 530 424 515 c 128,-1,62
 410 500 410 500 393 487 c 0,63,64
 377 475 377 475 367 465.5 c 128,-1,65
 357 456 357 456 351 447 c 0,66,67
 345 439 345 439 343.5 430 c 128,-1,68
 342 421 342 421 342 411 c 256,69,70
 342 401 342 401 350 390 c 128,-1,71
 358 379 358 379 370 369 c 0,72,73
 382 358 382 358 395 348 c 128,-1,74
 408 338 408 338 417 332 c 0,75,76
 448 308 448 308 467.5 288 c 128,-1,77
 487 268 487 268 498 248 c 256,78,79
 509 228 509 228 513 205 c 128,-1,80
 517 182 517 182 517 153 c 0,81,82
 517 123 517 123 504 94.5 c 128,-1,83
 491 66 491 66 468 41 c 0,84,85
 444 17 444 17 409.5 -2 c 128,-1,86
 375 -21 375 -21 331 -31 c 1,87,88
 352 -39 352 -39 374 -45 c 128,-1,89
 396 -51 396 -51 419 -55 c 0,90,91
 441 -60 441 -60 464.5 -62 c 128,-1,92
 488 -64 488 -64 512 -64 c 0,93,94
 618 -64 618 -64 711.5 -24 c 128,-1,95
 805 16 805 16 874 86 c 0,96,97
 944 155 944 155 984 248.5 c 128,-1,98
 1024 342 1024 342 1024 448 c 256,99,100
 1024 554 1024 554 984 647.5 c 128,-1,101
 944 741 944 741 874 810 c 0,102,103
 805 880 805 880 711.5 920 c 128,-1,104
 618 960 618 960 512 960 c 1,105,-1
 512 960 l 1,34,35
768 576 m 1,106,-1
 768 448 l 1,107,-1
 704 448 l 1,108,-1
 704 576 l 1,109,-1
 576 576 l 1,110,-1
 576 640 l 1,111,-1
 704 640 l 1,112,-1
 704 768 l 1,113,-1
 768 768 l 1,114,-1
 768 640 l 1,115,-1
 896 640 l 1,116,-1
 896 576 l 1,117,-1
 768 576 l 1,118,-1
 768 576 l 1,106,-1
366 621 m 1,119,120
 370 586 370 586 365 558.5 c 128,-1,121
 360 531 360 531 348 512 c 0,122,123
 335 493 335 493 315 483 c 128,-1,124
 295 473 295 473 269 473 c 0,125,126
 243 474 243 474 218.5 486 c 128,-1,127
 194 498 194 498 174 518 c 0,128,129
 154 539 154 539 140.5 567.5 c 128,-1,130
 127 596 127 596 122 630 c 0,131,132
 118 664 118 664 123.5 693 c 128,-1,133
 129 722 129 722 143 744 c 0,134,135
 158 765 158 765 179 777 c 128,-1,136
 200 789 200 789 226 788 c 256,137,138
 252 787 252 787 275 773.5 c 128,-1,139
 298 760 298 760 317 737 c 0,140,141
 336 715 336 715 348.5 685 c 128,-1,142
 361 655 361 655 366 621 c 1,143,-1
 366 621 l 1,119,120
221 318 m 1,144,145
 193 318 193 318 167 313.5 c 128,-1,146
 141 309 141 309 118 300 c 0,147,148
 95 292 95 292 75 280 c 128,-1,149
 55 268 55 268 38 254 c 1,150,151
 29 277 29 277 22 300 c 128,-1,152
 15 323 15 323 10 348 c 0,153,154
 5 372 5 372 2.5 397 c 128,-1,155
 0 422 0 422 0 448 c 0,156,157
 0 469 0 469 1.5 490 c 128,-1,158
 3 511 3 511 7 531 c 0,159,160
 10 552 10 552 15 571.5 c 128,-1,161
 20 591 20 591 26 610 c 1,162,163
 29 573 29 573 43.5 541 c 128,-1,164
 58 509 58 509 82 485 c 0,165,166
 107 461 107 461 141.5 447.5 c 128,-1,167
 176 434 176 434 219 434 c 0,168,169
 226 434 226 434 232 434.5 c 128,-1,170
 238 435 238 435 244 435 c 1,171,172
 241 430 241 430 238.5 423.5 c 128,-1,173
 236 417 236 417 234 411 c 0,174,175
 233 405 233 405 232 398.5 c 128,-1,176
 231 392 231 392 231 385 c 0,177,178
 231 374 231 374 233.5 365 c 128,-1,179
 236 356 236 356 241 348 c 256,180,181
 246 340 246 340 253 333 c 128,-1,182
 260 326 260 326 267 318 c 1,183,184
 262 318 262 318 256 318 c 128,-1,185
 250 318 250 318 244 318 c 0,186,187
 239 318 239 318 233 318 c 128,-1,188
 227 318 227 318 221 318 c 1,189,-1
 221 318 l 1,144,145
EndSplineSet
EndChar

StartChar: uniE618
Encoding: 58904 58904 28
Width: 1024
Flags: W
LayerCount: 2
Back
Fore
SplineSet
1 90 m 1,0,1
 1 92 1 92 0.5 94 c 128,-1,2
 0 96 0 96 0 98 c 1,3,4
 0 96 0 96 0.5 94 c 128,-1,5
 1 92 1 92 1 90 c 1,6,-1
 1 90 l 1,0,1
236 395 m 1,7,8
 270 394 270 394 298.5 410 c 128,-1,9
 327 426 327 426 345 455 c 0,10,11
 364 484 364 484 372 523.5 c 128,-1,12
 380 563 380 563 374 608 c 256,13,14
 368 653 368 653 349.5 692.5 c 128,-1,15
 331 732 331 732 305 762 c 0,16,17
 278 792 278 792 245.5 809.5 c 128,-1,18
 213 827 213 827 178 828 c 0,19,20
 144 829 144 829 116 813.5 c 128,-1,21
 88 798 88 798 69 769 c 0,22,23
 50 741 50 741 42.5 702 c 128,-1,24
 35 663 35 663 41 618 c 0,25,26
 46 573 46 573 64.5 533 c 128,-1,27
 83 493 83 493 110 462 c 0,28,29
 136 432 136 432 168.5 414 c 128,-1,30
 201 396 201 396 236 395 c 1,31,-1
 236 395 l 1,7,8
1024 704 m 1,32,-1
 1024 789 l 2,33,34
 1024 825 1024 825 1010.5 856 c 128,-1,35
 997 887 997 887 974 910 c 256,36,37
 951 933 951 933 920 946.5 c 128,-1,38
 889 960 889 960 853 960 c 2,39,-1
 171 960 l 2,40,41
 136 960 136 960 105.5 947 c 128,-1,42
 75 934 75 934 52 911 c 0,43,44
 29 889 29 889 15 858.5 c 128,-1,45
 1 828 1 828 0 794 c 1,46,47
 22 813 22 813 48 830.5 c 128,-1,48
 74 848 74 848 102 861 c 0,49,50
 131 873 131 873 161.5 880.5 c 128,-1,51
 192 888 192 888 223 888 c 0,52,53
 290 888 290 888 435 888 c 128,-1,54
 580 888 580 888 580 888 c 1,55,-1
 500 821 l 1,56,-1
 387 821 l 1,57,58
 415 810 415 810 436.5 789 c 128,-1,59
 458 768 458 768 473 741 c 0,60,61
 487 713 487 713 494.5 681 c 128,-1,62
 502 649 502 649 502 615 c 0,63,64
 502 587 502 587 494.5 561 c 128,-1,65
 487 535 487 535 474 511 c 0,66,67
 461 488 461 488 442 467 c 128,-1,68
 423 446 423 446 401 429 c 0,69,70
 380 412 380 412 366.5 399.5 c 128,-1,71
 353 387 353 387 345 376 c 0,72,73
 338 364 338 364 335.5 353 c 128,-1,74
 333 342 333 342 333 327 c 0,75,76
 333 315 333 315 343 299.5 c 128,-1,77
 353 284 353 284 368 268 c 0,78,79
 382 253 382 253 398.5 239 c 128,-1,80
 415 225 415 225 427 216 c 0,81,82
 462 191 462 191 486 166.5 c 128,-1,83
 510 142 510 142 525 114 c 0,84,85
 539 87 539 87 545.5 55.5 c 128,-1,86
 552 24 552 24 552 -15 c 0,87,88
 552 -21 552 -21 551.5 -27.5 c 128,-1,89
 551 -34 551 -34 550 -40 c 256,90,91
 549 -46 549 -46 548 -52 c 128,-1,92
 547 -58 547 -58 546 -64 c 1,93,-1
 853 -64 l 2,94,95
 889 -64 889 -64 920 -50.5 c 128,-1,96
 951 -37 951 -37 974 -14 c 256,97,98
 997 9 997 9 1010.5 40 c 128,-1,99
 1024 71 1024 71 1024 107 c 2,100,-1
 1024 640 l 1,101,-1
 832 640 l 1,102,-1
 832 448 l 1,103,-1
 768 448 l 1,104,-1
 768 640 l 1,105,-1
 576 640 l 1,106,-1
 576 704 l 1,107,-1
 768 704 l 1,108,-1
 768 896 l 1,109,-1
 832 896 l 1,110,-1
 832 704 l 1,111,-1
 1024 704 l 1,112,-1
 1024 704 l 1,32,-1
186 194 m 1,113,114
 194 194 194 194 202 194 c 128,-1,115
 210 194 210 194 217 194 c 0,116,117
 225 194 225 194 232.5 194.5 c 128,-1,118
 240 195 240 195 248 195 c 1,119,120
 238 205 238 205 229 216 c 128,-1,121
 220 227 220 227 213 239 c 0,122,123
 207 251 207 251 203 264.5 c 128,-1,124
 199 278 199 278 199 293 c 0,125,126
 199 302 199 302 200.5 310.5 c 128,-1,127
 202 319 202 319 204 328 c 0,128,129
 207 336 207 336 210 344 c 128,-1,130
 213 352 213 352 217 360 c 1,131,132
 213 359 213 359 209 359 c 128,-1,133
 205 359 205 359 201 359 c 256,134,135
 197 359 197 359 192.5 359 c 128,-1,136
 188 359 188 359 184 359 c 0,137,138
 156 359 156 359 130.5 363 c 128,-1,139
 105 367 105 367 82 376 c 0,140,141
 59 384 59 384 38.5 395.5 c 128,-1,142
 18 407 18 407 0 422 c 1,143,-1
 0 355 l 1,144,-1
 0 153 l 1,145,146
 20 163 20 163 42 170.5 c 128,-1,147
 64 178 64 178 87 183 c 0,148,149
 110 189 110 189 135 191.5 c 128,-1,150
 160 194 160 194 186 194 c 1,151,-1
 186 194 l 1,113,114
3 73 m 1,152,153
 3 77 3 77 2 81 c 128,-1,154
 1 85 1 85 1 89 c 1,155,156
 1 85 1 85 2 81 c 128,-1,157
 3 77 3 77 3 73 c 1,158,-1
 3 73 l 1,152,153
455 7 m 1,159,160
 450 29 450 29 437.5 46.5 c 128,-1,161
 425 64 425 64 406 80 c 0,162,163
 388 95 388 95 364 111 c 128,-1,164
 340 127 340 127 313 147 c 1,165,166
 302 150 302 150 291.5 152.5 c 128,-1,167
 281 155 281 155 270 157 c 256,168,169
 259 159 259 159 247.5 160 c 128,-1,170
 236 161 236 161 224 161 c 0,171,172
 190 161 190 161 158 155 c 128,-1,173
 126 149 126 149 98 137 c 0,174,175
 69 125 69 125 45 109 c 128,-1,176
 21 93 21 93 3 73 c 1,177,178
 9 43 9 43 24.5 18 c 128,-1,179
 40 -7 40 -7 62 -25 c 256,180,181
 84 -43 84 -43 112 -53.5 c 128,-1,182
 140 -64 140 -64 171 -64 c 2,183,-1
 457 -64 l 1,184,185
 458 -60 458 -60 458.5 -55.5 c 128,-1,186
 459 -51 459 -51 459 -47 c 256,187,188
 459 -43 459 -43 459.5 -38.5 c 128,-1,189
 460 -34 460 -34 460 -30 c 0,190,191
 460 -25 460 -25 459.5 -20.5 c 128,-1,192
 459 -16 459 -16 459 -11 c 0,193,194
 458 -6 458 -6 457.5 -1.5 c 128,-1,195
 457 3 457 3 455 7 c 1,196,-1
 455 7 l 1,159,160
EndSplineSet
EndChar

StartChar: uniE619
Encoding: 58905 58905 29
Width: 1024
Flags: W
LayerCount: 2
Back
Fore
SplineSet
459 300 m 1,0,-1
 288 4 l 1,1,-1
 853 4 l 1,2,-1
 1023 299 l 1,3,-1
 459 300 l 1,0,-1
976 383 m 1,4,-1
 682 890 l 1,5,-1
 341 890 l 1,6,-1
 633 382 l 1,7,-1
 976 383 l 1,4,-1
293 805 m 1,8,-1
 -1 298 l 1,9,-1
 171 3 l 1,10,-1
 463 510 l 1,11,-1
 293 805 l 1,8,-1
EndSplineSet
EndChar

StartChar: uniE61A
Encoding: 58906 58906 30
Width: 1024
Flags: W
LayerCount: 2
Back
Fore
SplineSet
496 960 m 1,0,1
 393 960 393 960 303 921 c 128,-1,2
 213 882 213 882 145 815 c 0,3,4
 78 747 78 747 39 657 c 128,-1,5
 0 567 0 567 0 464 c 256,6,7
 0 361 0 361 39 271 c 128,-1,8
 78 181 78 181 145 113 c 0,9,10
 213 46 213 46 303 7 c 128,-1,11
 393 -32 393 -32 496 -32 c 256,12,13
 599 -32 599 -32 689 7 c 128,-1,14
 779 46 779 46 847 113 c 0,15,16
 914 181 914 181 953 271 c 128,-1,17
 992 361 992 361 992 464 c 256,18,19
 992 567 992 567 953 657 c 128,-1,20
 914 747 914 747 847 815 c 0,21,22
 779 882 779 882 689 921 c 128,-1,23
 599 960 599 960 496 960 c 1,24,-1
 496 960 l 1,0,1
927 480 m 1,25,-1
 735 480 l 1,26,27
 735 507 735 507 732 532.5 c 128,-1,28
 729 558 729 558 725 584 c 0,29,30
 720 609 720 609 713.5 633 c 128,-1,31
 707 657 707 657 699 681 c 1,32,33
 715 687 715 687 730.5 695 c 128,-1,34
 746 703 746 703 761 712 c 256,35,36
 776 721 776 721 790 730.5 c 128,-1,37
 804 740 804 740 818 751 c 1,38,39
 842 724 842 724 861.5 692.5 c 128,-1,40
 881 661 881 661 896 627 c 0,41,42
 910 593 910 593 918 556 c 128,-1,43
 926 519 926 519 927 480 c 1,44,-1
 927 480 l 1,25,-1
478 33 m 1,45,46
 458 50 458 50 440 69 c 128,-1,47
 422 88 422 88 405 109 c 0,48,49
 389 130 389 130 374.5 153 c 128,-1,50
 360 176 360 176 348 201 c 1,51,52
 364 206 364 206 380 210 c 128,-1,53
 396 214 396 214 412 217 c 0,54,55
 429 219 429 219 446 221 c 128,-1,56
 463 223 463 223 480 223 c 1,57,-1
 480 33 l 1,58,59
 480 33 480 33 479.5 33 c 128,-1,60
 479 33 479 33 478 33 c 1,61,-1
 478 33 l 1,45,46
514 895 m 1,62,63
 536 876 536 876 556.5 854 c 128,-1,64
 577 832 577 832 595 808 c 0,65,66
 613 783 613 783 628.5 756 c 128,-1,67
 644 729 644 729 657 699 c 1,68,69
 639 693 639 693 621.5 688.5 c 128,-1,70
 604 684 604 684 586 681 c 0,71,72
 568 677 568 677 549.5 675 c 128,-1,73
 531 673 531 673 512 673 c 1,74,-1
 512 895 l 1,75,76
 512 895 512 895 512.5 895 c 128,-1,77
 513 895 513 895 514 895 c 1,78,-1
 514 895 l 1,62,63
567 890 m 1,79,80
 600 884 600 884 631.5 873.5 c 128,-1,81
 663 863 663 863 692 849 c 0,82,83
 720 834 720 834 746.5 815 c 128,-1,84
 773 796 773 796 796 774 c 1,85,86
 784 764 784 764 770.5 755.5 c 128,-1,87
 757 747 757 747 744 739 c 0,88,89
 730 731 730 731 715.5 723.5 c 128,-1,90
 701 716 701 716 686 710 c 1,91,92
 676 736 676 736 662.5 760.5 c 128,-1,93
 649 785 649 785 634 807 c 0,94,95
 619 830 619 830 602.5 850.5 c 128,-1,96
 586 871 586 871 567 890 c 1,97,-1
 567 890 l 1,79,80
480 895 m 1,98,-1
 480 673 l 1,99,100
 461 673 461 673 442.5 675 c 128,-1,101
 424 677 424 677 406 681 c 0,102,103
 388 684 388 684 370.5 688.5 c 128,-1,104
 353 693 353 693 335 699 c 1,105,106
 348 729 348 729 363.5 756 c 128,-1,107
 379 783 379 783 397 808 c 0,108,109
 415 832 415 832 435.5 854 c 128,-1,110
 456 876 456 876 478 895 c 0,111,112
 479 895 479 895 479.5 895 c 128,-1,113
 480 895 480 895 480 895 c 1,114,-1
 480 895 l 1,98,-1
305 710 m 1,115,116
 291 716 291 716 276.5 723.5 c 128,-1,117
 262 731 262 731 248 739 c 0,118,119
 235 747 235 747 221.5 755.5 c 128,-1,120
 208 764 208 764 196 774 c 1,121,122
 219 796 219 796 245.5 815 c 128,-1,123
 272 834 272 834 300 849 c 0,124,125
 329 863 329 863 360.5 873.5 c 128,-1,126
 392 884 392 884 425 890 c 1,127,128
 406 871 406 871 389.5 850.5 c 128,-1,129
 373 830 373 830 358 807 c 0,130,131
 343 785 343 785 329.5 760.5 c 128,-1,132
 316 736 316 736 305 710 c 1,133,-1
 305 710 l 1,115,116
323 670 m 1,134,135
 342 663 342 663 361 658 c 128,-1,136
 380 653 380 653 400 649 c 0,137,138
 419 646 419 646 439 643.5 c 128,-1,139
 459 641 459 641 480 641 c 1,140,-1
 480 480 l 1,141,-1
 289 480 l 1,142,143
 289 505 289 505 291.5 529.5 c 128,-1,144
 294 554 294 554 299 578 c 0,145,146
 303 602 303 602 309 625 c 128,-1,147
 315 648 315 648 323 670 c 1,148,-1
 323 670 l 1,134,135
480 448 m 1,149,-1
 480 255 l 1,150,151
 461 255 461 255 442.5 253 c 128,-1,152
 424 251 424 251 406 248 c 256,153,154
 388 245 388 245 370 240.5 c 128,-1,155
 352 236 352 236 335 231 c 1,156,157
 324 255 324 255 316 281.5 c 128,-1,158
 308 308 308 308 302 335 c 256,159,160
 296 362 296 362 292.5 390.5 c 128,-1,161
 289 419 289 419 289 448 c 1,162,-1
 480 448 l 1,163,-1
 480 448 l 1,149,-1
425 38 m 1,164,165
 395 43 395 43 367 52 c 128,-1,166
 339 61 339 61 313 73 c 0,167,168
 286 86 286 86 262 101.5 c 128,-1,169
 238 117 238 117 216 136 c 1,170,171
 227 144 227 144 239.5 151.5 c 128,-1,172
 252 159 252 159 265 166 c 256,173,174
 278 173 278 173 291 179 c 128,-1,175
 304 185 304 185 318 190 c 1,176,177
 328 169 328 169 340 148.5 c 128,-1,178
 352 128 352 128 366 109 c 0,179,180
 379 90 379 90 394 72 c 128,-1,181
 409 54 409 54 425 38 c 1,182,-1
 425 38 l 1,164,165
512 33 m 1,183,-1
 512 223 l 1,184,185
 529 223 529 223 546 221 c 128,-1,186
 563 219 563 219 580 217 c 0,187,188
 596 214 596 214 612 210 c 128,-1,189
 628 206 628 206 644 201 c 1,190,191
 632 176 632 176 617.5 153 c 128,-1,192
 603 130 603 130 587 109 c 0,193,194
 570 88 570 88 552 68.5 c 128,-1,195
 534 49 534 49 514 33 c 0,196,197
 513 33 513 33 512.5 33 c 128,-1,198
 512 33 512 33 512 33 c 1,199,-1
 512 33 l 1,183,-1
674 190 m 1,200,201
 688 185 688 185 701 179 c 128,-1,202
 714 173 714 173 727 166 c 256,203,204
 740 159 740 159 752.5 151.5 c 128,-1,205
 765 144 765 144 776 136 c 1,206,207
 754 117 754 117 730 101.5 c 128,-1,208
 706 86 706 86 679 73 c 0,209,210
 653 61 653 61 625 52 c 128,-1,211
 597 43 597 43 567 38 c 1,212,213
 583 54 583 54 598 72 c 128,-1,214
 613 90 613 90 626 109 c 0,215,216
 640 128 640 128 652 148.5 c 128,-1,217
 664 169 664 169 674 190 c 1,218,-1
 674 190 l 1,200,201
657 231 m 1,219,220
 640 236 640 236 622 240.5 c 128,-1,221
 604 245 604 245 586 248 c 256,222,223
 568 251 568 251 549.5 253 c 128,-1,224
 531 255 531 255 512 255 c 1,225,-1
 512 448 l 1,226,-1
 703 448 l 1,227,228
 703 419 703 419 699.5 390.5 c 128,-1,229
 696 362 696 362 690 335 c 256,230,231
 684 308 684 308 676 281.5 c 128,-1,232
 668 255 668 255 657 231 c 1,233,-1
 657 231 l 1,219,220
512 480 m 1,234,-1
 512 641 l 1,235,236
 533 641 533 641 553 643.5 c 128,-1,237
 573 646 573 646 592 649 c 0,238,239
 612 653 612 653 631 658 c 128,-1,240
 650 663 650 663 669 670 c 1,241,242
 677 648 677 648 683 625 c 128,-1,243
 689 602 689 602 693 578 c 0,244,245
 698 554 698 554 700.5 529.5 c 128,-1,246
 703 505 703 505 703 480 c 1,247,-1
 512 480 l 1,248,-1
 512 480 l 1,234,-1
174 751 m 1,249,250
 188 740 188 740 202 730.5 c 128,-1,251
 216 721 216 721 231 712 c 256,252,253
 246 703 246 703 261.5 695 c 128,-1,254
 277 687 277 687 293 681 c 1,255,256
 285 657 285 657 278.5 633 c 128,-1,257
 272 609 272 609 267 584 c 0,258,259
 263 558 263 558 260 532.5 c 128,-1,260
 257 507 257 507 257 480 c 1,261,-1
 65 480 l 1,262,263
 66 519 66 519 74 556 c 128,-1,264
 82 593 82 593 96 627 c 0,265,266
 111 661 111 661 130.5 692.5 c 128,-1,267
 150 724 150 724 174 751 c 1,268,-1
 174 751 l 1,249,250
65 448 m 1,269,-1
 257 448 l 1,270,271
 257 417 257 417 260.5 387.5 c 128,-1,272
 264 358 264 358 271 329 c 0,273,274
 277 301 277 301 285.5 273.5 c 128,-1,275
 294 246 294 246 305 220 c 1,276,277
 290 214 290 214 275 207 c 128,-1,278
 260 200 260 200 246 192 c 256,279,280
 232 184 232 184 218.5 175.5 c 128,-1,281
 205 167 205 167 192 158 c 1,282,283
 163 186 163 186 140.5 219 c 128,-1,284
 118 252 118 252 102 289 c 0,285,286
 85 325 85 325 75.5 365.5 c 128,-1,287
 66 406 66 406 65 448 c 1,288,-1
 65 448 l 1,269,-1
800 158 m 1,289,290
 787 167 787 167 773.5 175.5 c 128,-1,291
 760 184 760 184 746 192 c 256,292,293
 732 200 732 200 717 207 c 128,-1,294
 702 214 702 214 687 220 c 1,295,296
 698 246 698 246 706.5 273.5 c 128,-1,297
 715 301 715 301 721 329 c 0,298,299
 728 358 728 358 731.5 387.5 c 128,-1,300
 735 417 735 417 735 448 c 1,301,-1
 927 448 l 1,302,303
 926 406 926 406 916.5 365.5 c 128,-1,304
 907 325 907 325 890 289 c 0,305,306
 874 252 874 252 851.5 219 c 128,-1,307
 829 186 829 186 800 158 c 1,308,-1
 800 158 l 1,289,290
EndSplineSet
EndChar

StartChar: uniE61B
Encoding: 58907 58907 31
Width: 1024
Flags: W
LayerCount: 2
Back
Fore
SplineSet
640 704 m 1,0,-1
 640 960 l 1,1,-1
 192 960 l 1,2,-1
 0 768 l 1,3,-1
 0 192 l 1,4,-1
 384 192 l 1,5,-1
 384 -64 l 1,6,-1
 1024 -64 l 1,7,-1
 1024 704 l 1,8,-1
 640 704 l 1,9,-1
 640 704 l 1,0,-1
192 869 m 1,10,-1
 192 768 l 1,11,-1
 91 768 l 1,12,-1
 192 869 l 1,13,-1
 192 869 l 1,10,-1
64 256 m 1,14,-1
 64 704 l 1,15,-1
 256 704 l 1,16,-1
 256 896 l 1,17,-1
 576 896 l 1,18,-1
 576 704 l 1,19,-1
 384 512 l 1,20,-1
 384 256 l 1,21,-1
 64 256 l 1,22,-1
 64 256 l 1,14,-1
576 613 m 1,23,-1
 576 512 l 1,24,-1
 475 512 l 1,25,-1
 576 613 l 1,26,-1
 576 613 l 1,23,-1
960 0 m 1,27,-1
 448 0 l 1,28,-1
 448 448 l 1,29,-1
 640 448 l 1,30,-1
 640 640 l 1,31,-1
 960 640 l 1,32,-1
 960 0 l 1,33,-1
 960 0 l 1,27,-1
EndSplineSet
EndChar

StartChar: uniE61C
Encoding: 58908 58908 32
Width: 1024
Flags: W
LayerCount: 2
Back
Fore
SplineSet
978 766 m 1,0,1
 965 770 965 770 952.5 768 c 128,-1,2
 940 766 940 766 929 761 c 0,3,4
 918 754 918 754 910 744.5 c 128,-1,5
 902 735 902 735 898 722 c 2,6,-1
 893 705 l 1,7,-1
 296 704 l 1,8,-1
 288 777 l 2,9,10
 286 788 286 788 280.5 798.5 c 128,-1,11
 275 809 275 809 266 816 c 0,12,13
 258 824 258 824 247 828 c 128,-1,14
 236 832 236 832 224 833 c 2,15,-1
 64 832 l 2,16,17
 51 833 51 833 39 827.5 c 128,-1,18
 27 822 27 822 19 814 c 0,19,20
 10 805 10 805 5 793.5 c 128,-1,21
 0 782 0 782 0 768 c 0,22,23
 0 756 0 756 5 743.5 c 128,-1,24
 10 731 10 731 19 724 c 0,25,26
 27 714 27 714 39 709.5 c 128,-1,27
 51 705 51 705 64 704 c 2,28,-1
 168 705 l 1,29,-1
 224 248 l 2,30,31
 226 237 226 237 231.5 226.5 c 128,-1,32
 237 216 237 216 246 209 c 0,33,34
 254 201 254 201 265 197 c 128,-1,35
 276 193 276 193 288 192 c 2,36,-1
 832 193 l 2,37,38
 843 192 843 192 852.5 196 c 128,-1,39
 862 200 862 200 871 205 c 0,40,41
 879 212 879 212 885 220 c 128,-1,42
 891 228 891 228 894 239 c 2,43,-1
 1022 686 l 2,44,45
 1025 700 1025 700 1023.5 712 c 128,-1,46
 1022 724 1022 724 1016 736 c 0,47,48
 1010 746 1010 746 1000 754.5 c 128,-1,49
 990 763 990 763 978 766 c 1,50,-1
 978 766 l 1,0,1
512 449 m 1,51,-1
 512 512 l 1,52,-1
 640 513 l 1,53,-1
 640 448 l 1,54,-1
 512 449 l 1,55,-1
 512 449 l 1,51,-1
640 384 m 1,56,-1
 640 321 l 1,57,-1
 512 320 l 1,58,-1
 512 385 l 1,59,-1
 640 384 l 1,60,-1
 640 384 l 1,56,-1
512 577 m 1,61,-1
 512 640 l 1,62,-1
 640 641 l 1,63,-1
 640 576 l 1,64,-1
 512 577 l 1,65,-1
 512 577 l 1,61,-1
304 640 m 1,66,-1
 448 641 l 1,67,-1
 448 576 l 1,68,-1
 312 577 l 1,69,-1
 304 640 l 1,70,-1
 304 640 l 1,66,-1
320 513 m 1,71,-1
 448 512 l 1,72,-1
 448 449 l 1,73,-1
 328 448 l 1,74,-1
 320 513 l 1,75,-1
 320 513 l 1,71,-1
336 384 m 1,76,-1
 448 385 l 1,77,-1
 448 320 l 1,78,-1
 344 321 l 1,79,-1
 336 384 l 1,80,-1
 336 384 l 1,76,-1
784 321 m 1,81,-1
 704 320 l 1,82,-1
 704 385 l 1,83,-1
 802 384 l 1,84,-1
 784 321 l 1,85,-1
 784 321 l 1,81,-1
820 448 m 1,86,-1
 704 449 l 1,87,-1
 704 512 l 1,88,-1
 839 513 l 1,89,-1
 820 448 l 1,90,-1
 820 448 l 1,86,-1
857 577 m 1,91,-1
 704 576 l 1,92,-1
 704 641 l 1,93,-1
 875 640 l 1,94,-1
 857 577 l 1,95,-1
 857 577 l 1,91,-1
256 32 m 1,96,97
 256 53 256 53 263.5 70 c 128,-1,98
 271 87 271 87 284 101 c 0,99,100
 297 113 297 113 314.5 121 c 128,-1,101
 332 129 332 129 352 128 c 0,102,103
 372 129 372 129 389.5 121 c 128,-1,104
 407 113 407 113 420 101 c 0,105,106
 433 87 433 87 440.5 70 c 128,-1,107
 448 53 448 53 448 32 c 0,108,109
 448 13 448 13 440.5 -5 c 128,-1,110
 433 -23 433 -23 420 -35 c 0,111,112
 407 -49 407 -49 389.5 -56 c 128,-1,113
 372 -63 372 -63 352 -64 c 0,114,115
 332 -63 332 -63 314.5 -56 c 128,-1,116
 297 -49 297 -49 284 -35 c 0,117,118
 271 -23 271 -23 263.5 -5 c 128,-1,119
 256 13 256 13 256 32 c 1,120,-1
 256 32 l 1,96,97
640 33 m 1,121,122
 640 52 640 52 647.5 70 c 128,-1,123
 655 88 655 88 668 100 c 0,124,125
 681 114 681 114 698.5 121 c 128,-1,126
 716 128 716 128 736 129 c 0,127,128
 756 128 756 128 773.5 121 c 128,-1,129
 791 114 791 114 804 100 c 0,130,131
 817 88 817 88 824.5 70 c 128,-1,132
 832 52 832 52 832 33 c 0,133,134
 832 12 832 12 824.5 -5 c 128,-1,135
 817 -22 817 -22 804 -36 c 0,136,137
 791 -48 791 -48 773.5 -56 c 128,-1,138
 756 -64 756 -64 736 -63 c 0,139,140
 716 -64 716 -64 698.5 -56 c 128,-1,141
 681 -48 681 -48 668 -36 c 0,142,143
 655 -22 655 -22 647.5 -5 c 128,-1,144
 640 12 640 12 640 33 c 1,145,-1
 640 33 l 1,121,122
EndSplineSet
EndChar

StartChar: uniE61D
Encoding: 58909 58909 33
Width: 1024
Flags: W
LayerCount: 2
Back
Fore
SplineSet
670 287 m 1,0,-1
 885 163 l 1,1,-1
 360 22 l 1,2,-1
 220 547 l 1,3,-1
 440 419 l 1,4,5
 527 564 527 564 526.5 663 c 128,-1,6
 526 762 526 762 473 825 c 0,7,8
 420 887 420 887 331.5 916 c 128,-1,9
 243 945 243 945 155 946 c 1,10,11
 306 981 306 981 444.5 946 c 128,-1,12
 583 911 583 911 668 823 c 0,13,14
 753 732 753 732 764 595.5 c 128,-1,15
 775 459 775 459 670 287 c 1,16,-1
 670 287 l 1,0,-1
EndSplineSet
EndChar

StartChar: uniE61E
Encoding: 58910 58910 34
Width: 1024
Flags: W
LayerCount: 2
Back
Fore
SplineSet
918 873 m 1,0,1
 831 887 831 887 739.5 874 c 128,-1,2
 648 861 648 861 584 808 c 0,3,4
 521 756 521 756 503.5 658 c 128,-1,5
 486 560 486 560 547 404 c 1,6,-1
 785 491 l 1,7,-1
 556 -1 l 1,8,-1
 64 228 l 1,9,-1
 297 313 l 1,10,11
 223 500 223 500 257.5 633.5 c 128,-1,12
 292 767 292 767 391 840 c 256,13,14
 490 913 490 913 633 923 c 128,-1,15
 776 933 776 933 918 873 c 1,16,-1
 918 873 l 1,0,1
EndSplineSet
EndChar

StartChar: uniE61F
Encoding: 58911 58911 35
Width: 1024
Flags: W
LayerCount: 2
Back
Fore
SplineSet
592 512 m 1,0,-1
 576 512 l 1,1,-1
 576 704 l 2,2,3
 576 744 576 744 561 779 c 128,-1,4
 546 814 546 814 520 840 c 256,5,6
 494 866 494 866 459 881 c 128,-1,7
 424 896 424 896 384 896 c 2,8,-1
 256 896 l 2,9,10
 216 896 216 896 181 881 c 128,-1,11
 146 866 146 866 120 840 c 256,12,13
 94 814 94 814 79 779 c 128,-1,14
 64 744 64 744 64 704 c 2,15,-1
 64 512 l 1,16,-1
 48 512 l 2,17,18
 38 512 38 512 29.5 508 c 128,-1,19
 21 504 21 504 14 498 c 0,20,21
 8 491 8 491 4 482.5 c 128,-1,22
 0 474 0 474 0 464 c 2,23,-1
 0 -16 l 2,24,25
 0 -26 0 -26 4 -34.5 c 128,-1,26
 8 -43 8 -43 14 -50 c 0,27,28
 21 -56 21 -56 29.5 -60 c 128,-1,29
 38 -64 38 -64 48 -64 c 2,30,-1
 592 -64 l 2,31,32
 602 -64 602 -64 610.5 -60 c 128,-1,33
 619 -56 619 -56 626 -50 c 0,34,35
 632 -43 632 -43 636 -34.5 c 128,-1,36
 640 -26 640 -26 640 -16 c 2,37,-1
 640 464 l 2,38,39
 640 474 640 474 636 482.5 c 128,-1,40
 632 491 632 491 626 498 c 0,41,42
 619 504 619 504 610.5 508 c 128,-1,43
 602 512 602 512 592 512 c 1,44,-1
 592 512 l 1,0,-1
384 64 m 1,45,-1
 256 64 l 1,46,-1
 284 203 l 1,47,48
 278 208 278 208 272.5 213.5 c 128,-1,49
 267 219 267 219 264 226 c 0,50,51
 260 232 260 232 258 240 c 128,-1,52
 256 248 256 248 256 256 c 0,53,54
 256 269 256 269 261 281 c 128,-1,55
 266 293 266 293 275 301 c 0,56,57
 283 310 283 310 295 315 c 128,-1,58
 307 320 307 320 320 320 c 256,59,60
 333 320 333 320 345 315 c 128,-1,61
 357 310 357 310 365 301 c 0,62,63
 374 293 374 293 379 281 c 128,-1,64
 384 269 384 269 384 256 c 0,65,66
 384 248 384 248 382 240 c 128,-1,67
 380 232 380 232 376 226 c 0,68,69
 373 219 373 219 367.5 213.5 c 128,-1,70
 362 208 362 208 356 203 c 1,71,-1
 384 64 l 1,72,-1
 384 64 l 1,45,-1
448 512 m 1,73,-1
 192 512 l 1,74,-1
 192 704 l 2,75,76
 192 717 192 717 197 729 c 128,-1,77
 202 741 202 741 211 749 c 0,78,79
 219 758 219 758 231 763 c 128,-1,80
 243 768 243 768 256 768 c 2,81,-1
 384 768 l 2,82,83
 397 768 397 768 409 763 c 128,-1,84
 421 758 421 758 429 749 c 0,85,86
 438 741 438 741 443 729 c 128,-1,87
 448 717 448 717 448 704 c 2,88,-1
 448 512 l 1,89,-1
 448 512 l 1,73,-1
EndSplineSet
EndChar

StartChar: uniE620
Encoding: 58912 58912 36
Width: 1024
Flags: W
LayerCount: 2
Back
Fore
SplineSet
768 896 m 1,0,-1
 640 896 l 2,1,2
 600 896 600 896 565 881 c 128,-1,3
 530 866 530 866 504 840 c 256,4,5
 478 814 478 814 463 779 c 128,-1,6
 448 744 448 744 448 704 c 2,7,-1
 448 512 l 1,8,-1
 48 512 l 2,9,10
 38 512 38 512 29.5 508 c 128,-1,11
 21 504 21 504 14 498 c 0,12,13
 8 491 8 491 4 482.5 c 128,-1,14
 0 474 0 474 0 464 c 2,15,-1
 0 -16 l 2,16,17
 0 -26 0 -26 4 -34.5 c 128,-1,18
 8 -43 8 -43 14 -50 c 0,19,20
 21 -56 21 -56 29.5 -60 c 128,-1,21
 38 -64 38 -64 48 -64 c 2,22,-1
 592 -64 l 2,23,24
 602 -64 602 -64 610.5 -60 c 128,-1,25
 619 -56 619 -56 626 -50 c 0,26,27
 632 -43 632 -43 636 -34.5 c 128,-1,28
 640 -26 640 -26 640 -16 c 2,29,-1
 640 464 l 2,30,31
 640 474 640 474 636 482.5 c 128,-1,32
 632 491 632 491 626 498 c 0,33,34
 619 504 619 504 610.5 508 c 128,-1,35
 602 512 602 512 592 512 c 2,36,-1
 576 512 l 1,37,-1
 576 704 l 2,38,39
 576 717 576 717 581 729 c 128,-1,40
 586 741 586 741 595 749 c 0,41,42
 603 758 603 758 615 763 c 128,-1,43
 627 768 627 768 640 768 c 2,44,-1
 768 768 l 2,45,46
 781 768 781 768 793 763 c 128,-1,47
 805 758 805 758 813 749 c 0,48,49
 822 741 822 741 827 729 c 128,-1,50
 832 717 832 717 832 704 c 2,51,-1
 832 512 l 1,52,-1
 960 512 l 1,53,-1
 960 704 l 2,54,55
 960 744 960 744 945 779 c 128,-1,56
 930 814 930 814 904 840 c 256,57,58
 878 866 878 866 843 881 c 128,-1,59
 808 896 808 896 768 896 c 1,60,-1
 768 896 l 1,0,-1
384 64 m 1,61,-1
 256 64 l 1,62,-1
 284 203 l 1,63,64
 278 208 278 208 272.5 213.5 c 128,-1,65
 267 219 267 219 264 226 c 0,66,67
 260 232 260 232 258 240 c 128,-1,68
 256 248 256 248 256 256 c 0,69,70
 256 269 256 269 261 281 c 128,-1,71
 266 293 266 293 275 301 c 0,72,73
 283 310 283 310 295 315 c 128,-1,74
 307 320 307 320 320 320 c 256,75,76
 333 320 333 320 345 315 c 128,-1,77
 357 310 357 310 365 301 c 0,78,79
 374 293 374 293 379 281 c 128,-1,80
 384 269 384 269 384 256 c 0,81,82
 384 248 384 248 382 240 c 128,-1,83
 380 232 380 232 376 226 c 0,84,85
 373 219 373 219 367.5 213.5 c 128,-1,86
 362 208 362 208 356 203 c 1,87,-1
 384 64 l 1,88,-1
 384 64 l 1,61,-1
EndSplineSet
EndChar

StartChar: uniE621
Encoding: 58913 58913 37
Width: 1024
Flags: W
LayerCount: 2
Back
Fore
SplineSet
448 184 m 1,0,-1
 448 -64 l 1,1,-1
 64 320 l 1,2,-1
 448 704 l 1,3,-1
 448 450 l 1,4,5
 616 446 616 446 701.5 496.5 c 128,-1,6
 787 547 787 547 815 624 c 256,7,8
 843 701 843 701 824 792 c 128,-1,9
 805 883 805 883 762 960 c 1,10,11
 867 846 867 846 906.5 708.5 c 128,-1,12
 946 571 946 571 911 453 c 256,13,14
 876 335 876 335 762.5 257 c 128,-1,15
 649 179 649 179 448 184 c 1,16,-1
 448 184 l 1,0,-1
EndSplineSet
EndChar

StartChar: uniE622
Encoding: 58914 58914 38
Width: 1024
Flags: W
LayerCount: 2
Back
Fore
SplineSet
262 960 m 1,0,1
 219 883 219 883 200 792 c 128,-1,2
 181 701 181 701 209 624 c 256,3,4
 237 547 237 547 322.5 496.5 c 128,-1,5
 408 446 408 446 576 450 c 1,6,-1
 576 704 l 1,7,-1
 960 320 l 1,8,-1
 576 -64 l 1,9,-1
 576 184 l 1,10,11
 375 179 375 179 261.5 257 c 128,-1,12
 148 335 148 335 113 453 c 256,13,14
 78 571 78 571 117.5 708.5 c 128,-1,15
 157 846 157 846 262 960 c 1,16,-1
 262 960 l 1,0,1
EndSplineSet
EndChar

StartChar: uniE623
Encoding: 58915 58915 39
Width: 1024
Flags: W
LayerCount: 2
Back
Fore
SplineSet
0 -64 m 1,0,-1
 512 -64 l 1,1,-1
 512 960 l 1,2,-1
 0 960 l 1,3,-1
 0 -64 l 1,4,-1
 0 -64 l 1,0,-1
320 832 m 1,5,-1
 448 832 l 1,6,-1
 448 704 l 1,7,-1
 320 704 l 1,8,-1
 320 832 l 1,9,-1
 320 832 l 1,5,-1
320 576 m 1,10,-1
 448 576 l 1,11,-1
 448 448 l 1,12,-1
 320 448 l 1,13,-1
 320 576 l 1,14,-1
 320 576 l 1,10,-1
320 320 m 1,15,-1
 448 320 l 1,16,-1
 448 192 l 1,17,-1
 320 192 l 1,18,-1
 320 320 l 1,19,-1
 320 320 l 1,15,-1
64 832 m 1,20,-1
 192 832 l 1,21,-1
 192 704 l 1,22,-1
 64 704 l 1,23,-1
 64 832 l 1,24,-1
 64 832 l 1,20,-1
64 576 m 1,25,-1
 192 576 l 1,26,-1
 192 448 l 1,27,-1
 64 448 l 1,28,-1
 64 576 l 1,29,-1
 64 576 l 1,25,-1
64 320 m 1,30,-1
 192 320 l 1,31,-1
 192 192 l 1,32,-1
 64 192 l 1,33,-1
 64 320 l 1,34,-1
 64 320 l 1,30,-1
576 640 m 1,35,-1
 1024 640 l 1,36,-1
 1024 576 l 1,37,-1
 576 576 l 1,38,-1
 576 640 l 1,35,-1
576 -64 m 1,39,-1
 704 -64 l 1,40,-1
 704 192 l 1,41,-1
 896 192 l 1,42,-1
 896 -64 l 1,43,-1
 1024 -64 l 1,44,-1
 1024 512 l 1,45,-1
 576 512 l 1,46,-1
 576 -64 l 1,39,-1
EndSplineSet
EndChar

StartChar: uniE624
Encoding: 58916 58916 40
Width: 1024
Flags: W
LayerCount: 2
Back
Fore
SplineSet
448 384 m 1,0,-1
 448 832 l 1,1,2
 355 832 355 832 273.5 797 c 128,-1,3
 192 762 192 762 131 701 c 256,4,5
 70 640 70 640 35 558.5 c 128,-1,6
 0 477 0 477 0 384 c 256,7,8
 0 291 0 291 35 209.5 c 128,-1,9
 70 128 70 128 131 67 c 256,10,11
 192 6 192 6 273.5 -29 c 128,-1,12
 355 -64 355 -64 448 -64 c 256,13,14
 541 -64 541 -64 622.5 -29 c 128,-1,15
 704 6 704 6 765 67 c 256,16,17
 826 128 826 128 861 209.5 c 128,-1,18
 896 291 896 291 896 384 c 0,19,20
 896 411 896 411 893 437 c 128,-1,21
 890 463 890 463 884 489 c 0,22,23
 878 514 878 514 869 538 c 128,-1,24
 860 562 860 562 849 584 c 1,25,-1
 448 384 l 1,26,-1
 448 384 l 1,0,-1
913 712 m 1,27,28
 885 767 885 767 843.5 813 c 128,-1,29
 802 859 802 859 751 891 c 0,30,31
 699 924 699 924 638.5 942 c 128,-1,32
 578 960 578 960 512 960 c 1,33,-1
 512 512 l 1,34,-1
 913 712 l 1,35,-1
 913 712 l 1,27,28
EndSplineSet
EndChar

StartChar: uniE625
Encoding: 58917 58917 41
Width: 1024
Flags: W
LayerCount: 2
Back
Fore
SplineSet
128 64 m 1,0,-1
 1024 64 l 1,1,-1
 1024 -64 l 1,2,-1
 0 -64 l 1,3,-1
 0 960 l 1,4,-1
 128 960 l 1,5,-1
 128 64 l 1,0,-1
288 128 m 1,6,7
 268 128 268 128 250.5 135.5 c 128,-1,8
 233 143 233 143 220 156 c 256,9,10
 207 169 207 169 199.5 186.5 c 128,-1,11
 192 204 192 204 192 224 c 256,12,13
 192 244 192 244 199.5 261.5 c 128,-1,14
 207 279 207 279 220 292 c 256,15,16
 233 305 233 305 250.5 312.5 c 128,-1,17
 268 320 268 320 288 320 c 0,18,19
 290 320 290 320 292 320 c 128,-1,20
 294 320 294 320 296 320 c 2,21,-1
 400 492 l 1,22,23
 396 497 396 497 393 503.5 c 128,-1,24
 390 510 390 510 388 516 c 0,25,26
 386 523 386 523 385 530 c 128,-1,27
 384 537 384 537 384 544 c 0,28,29
 384 564 384 564 391.5 581.5 c 128,-1,30
 399 599 399 599 412 612 c 256,31,32
 425 625 425 625 442.5 632.5 c 128,-1,33
 460 640 460 640 480 640 c 256,34,35
 500 640 500 640 517.5 632.5 c 128,-1,36
 535 625 535 625 548 612 c 256,37,38
 561 599 561 599 568.5 581.5 c 128,-1,39
 576 564 576 564 576 544 c 0,40,41
 576 537 576 537 575 530 c 128,-1,42
 574 523 574 523 572 516 c 0,43,44
 570 510 570 510 567 503.5 c 128,-1,45
 564 497 564 497 560 492 c 1,46,-1
 664 320 l 2,47,48
 666 320 666 320 668 320 c 128,-1,49
 670 320 670 320 672 320 c 256,50,51
 674 320 674 320 675.5 320 c 128,-1,52
 677 320 677 320 678 320 c 2,53,-1
 849 618 l 1,54,55
 845 624 845 624 842 630 c 128,-1,56
 839 636 839 636 836 643 c 0,57,58
 834 650 834 650 833 657 c 128,-1,59
 832 664 832 664 832 672 c 0,60,61
 832 692 832 692 839.5 709.5 c 128,-1,62
 847 727 847 727 860 740 c 256,63,64
 873 753 873 753 890.5 760.5 c 128,-1,65
 908 768 908 768 928 768 c 256,66,67
 948 768 948 768 965.5 760.5 c 128,-1,68
 983 753 983 753 996 740 c 256,69,70
 1009 727 1009 727 1016.5 709.5 c 128,-1,71
 1024 692 1024 692 1024 672 c 256,72,73
 1024 652 1024 652 1016.5 634.5 c 128,-1,74
 1009 617 1009 617 996 604 c 256,75,76
 983 591 983 591 965.5 583.5 c 128,-1,77
 948 576 948 576 928 576 c 0,78,79
 926 576 926 576 924.5 576 c 128,-1,80
 923 576 923 576 922 576 c 2,81,-1
 751 278 l 1,82,83
 755 272 755 272 758 266 c 128,-1,84
 761 260 761 260 764 253 c 0,85,86
 766 246 766 246 767 239 c 128,-1,87
 768 232 768 232 768 224 c 0,88,89
 768 204 768 204 760.5 186.5 c 128,-1,90
 753 169 753 169 740 156 c 256,91,92
 727 143 727 143 709.5 135.5 c 128,-1,93
 692 128 692 128 672 128 c 256,94,95
 652 128 652 128 634.5 135.5 c 128,-1,96
 617 143 617 143 604 156 c 256,97,98
 591 169 591 169 583.5 186.5 c 128,-1,99
 576 204 576 204 576 224 c 0,100,101
 576 231 576 231 577 238 c 128,-1,102
 578 245 578 245 580 252 c 0,103,104
 582 258 582 258 585 264.5 c 128,-1,105
 588 271 588 271 592 276 c 1,106,-1
 488 448 l 2,107,108
 486 448 486 448 484 448 c 128,-1,109
 482 448 482 448 480 448 c 256,110,111
 478 448 478 448 476 448 c 128,-1,112
 474 448 474 448 472 448 c 2,113,-1
 368 276 l 1,114,115
 372 271 372 271 375 264.5 c 128,-1,116
 378 258 378 258 380 252 c 0,117,118
 382 245 382 245 383 238 c 128,-1,119
 384 231 384 231 384 224 c 0,120,121
 384 204 384 204 376.5 186.5 c 128,-1,122
 369 169 369 169 356 156 c 256,123,124
 343 143 343 143 325.5 135.5 c 128,-1,125
 308 128 308 128 288 128 c 1,126,-1
 288 128 l 1,6,7
EndSplineSet
EndChar

StartChar: uniE626
Encoding: 58918 58918 42
Width: 1024
Flags: W
LayerCount: 2
Back
Fore
SplineSet
0 128 m 1,0,-1
 1024 128 l 1,1,-1
 1024 0 l 1,2,-1
 0 0 l 1,3,-1
 0 128 l 1,0,-1
128 384 m 1,4,-1
 256 384 l 1,5,-1
 256 192 l 1,6,-1
 128 192 l 1,7,-1
 128 384 l 1,4,-1
320 640 m 1,8,-1
 448 640 l 1,9,-1
 448 192 l 1,10,-1
 320 192 l 1,11,-1
 320 640 l 1,8,-1
512 448 m 1,12,-1
 640 448 l 1,13,-1
 640 192 l 1,14,-1
 512 192 l 1,15,-1
 512 448 l 1,12,-1
704 832 m 1,16,-1
 832 832 l 1,17,-1
 832 192 l 1,18,-1
 704 192 l 1,19,-1
 704 832 l 1,16,-1
EndSplineSet
EndChar
